<?xml version="1.0" encoding="UTF-8"?>
<svg width="170px" height="99px" viewBox="0 0 170 99" version="1.1" xmlns="http://www.w3.org/2000/svg" xmlns:xlink="http://www.w3.org/1999/xlink">
    <!-- Generator: Sketch 40.3 (33839) - http://www.bohemiancoding.com/sketch -->
    <title>Group</title>
    <desc>Created with Sketch.</desc>
    <defs>
        <linearGradient x1="0%" y1="0%" x2="101.999998%" y2="100.999999%" id="linearGradient-1">
            <stop stop-color="#3023AE" offset="0%"></stop>
            <stop stop-color="#C96DD8" offset="100%"></stop>
        </linearGradient>
    </defs>
    <g id="Page-1" stroke="none" stroke-width="1" fill="none" fill-rule="evenodd">
        <g id="Advantages" transform="translate(-368.000000, -278.000000)">
            <g id="Аналитика-и-контроль" transform="translate(256.000000, 278.000000)">
                <g id="Group" transform="translate(112.000000, 0.000000)">
                    <rect id="Rectangle-5" fill="#000000" x="0" y="72" width="88" height="4"></rect>
                    <rect id="Rectangle-5-Copy" fill="#9B9B9B" x="0" y="83" width="47" height="4"></rect>
                    <rect id="Rectangle-5-Copy-2" fill="#9B9B9B" x="0" y="89" width="55" height="4"></rect>
                    <rect id="Rectangle-5-Copy-3" fill="#9B9B9B" x="0" y="95" width="40" height="4"></rect>
                    <path d="M169.586558,32.8291296 C169.469943,32.279749 170.318792,31.7645405 169.779108,31.2729894 C167.755971,29.5118173 165.326037,28.2763682 162.825591,27.2774945 C155.581893,24.3071594 147.738846,23.2478276 139.979871,22.4355855 C137.034661,22.172724 134.070467,21.6759157 131.106272,21.7679173 C130.780835,21.7521456 130.656084,20.8163586 130.091992,20.8321303 C129.74757,20.8663023 128.909569,21.0739629 128.605827,20.9609324 C128.255981,20.7927011 128.109534,20.4352094 127.521035,20.4693814 C127.038302,20.6349841 127.195597,21.1396782 126.647777,20.7585291 C126.242811,20.4963579 125.821667,20.2584615 125.386706,20.0461744 C119.048809,16.7551483 112.686504,13.5245803 106.196735,10.5332163 C103.118638,9.08747803 99.9591812,7.82311416 96.7427728,6.67178075 C88.4793695,4.00636504 79.6437384,3.49641371 71.0060819,3.18886575 C63.5481367,2.98646238 56.0440878,3.03903469 48.66479,4.30865578 C47.7481407,3.71196015 46.2836715,3.22303774 45.3643102,3.96693582 C43.4035486,2.81297379 41.7031371,1.30414872 39.8454308,0.0240131695 C39.7607792,-0.0206628447 39.655399,-0.00161543335 39.5930503,0.0696307914 C39.5307017,0.140877016 39.5285064,0.244756904 39.5877926,0.31841806 C41.3695636,1.71684129 43.2733736,2.97331931 44.9412413,4.5031733 C45.1012482,4.64511851 44.9412413,4.84752187 44.9195455,5.01575324 C43.7181383,5.3390729 42.3648603,5.48890396 41.2827802,6.01988421 C32.875642,8.83775959 25.0325956,12.9646853 17.2193809,17.0258956 C12.7391899,17.2572137 8.23730292,17.583162 3.75168786,17.7619078 C3.24183561,17.9380251 2.61808019,17.6225912 2.17602744,17.9721971 C1.96178101,20.1697193 2.26552278,22.4171852 1.86686171,24.6120788 C1.69871894,27.0382905 1.78279033,29.480274 1.76380647,31.9170001 C1.72041478,32.4216942 1.49260846,32.8869591 1.37599331,33.3758815 C0.811526153,33.2619311 0.242937662,33.5518151 0.0200032733,34.0672073 C0.0661069347,35.8835803 -0.134579591,37.7209823 0.188146038,39.518955 C0.459344046,39.8527891 0.952924421,39.6582716 1.32446569,39.6845578 C0.535279489,41.3695 1.81804607,43.0202703 2.01873259,44.6789264 C2.38213792,45.399167 2.16517952,46.348097 2.81063078,46.9369068 C3.46692996,47.5756603 4.1964526,48.2748719 5.14564563,48.4089313 C9.70448414,50.0728446 14.6999514,49.7574108 19.4106608,49.1186573 C19.8120339,48.6849359 20.4954529,48.5140759 20.6934274,47.912123 C21.2141276,46.6346161 21.1707359,45.2335642 21.425662,43.8982278 C22.0819612,39.8817039 24.3437526,35.6391191 28.0456054,33.5651418 C31.9264489,31.5936805 36.677838,31.1809879 40.7919118,32.6792985 C44.6103798,34.0172636 47.5881339,37.5501223 48.8627645,41.2512124 C49.5760153,43.7221105 50.0885795,46.313925 49.9475566,48.8741961 C49.9285727,49.4840348 49.8255175,50.2331901 49.9990842,50.7641704 C73.709926,50.8035996 97.4261918,50.7641704 121.139746,50.7825707 C122.224538,50.9429162 121.641462,49.4971779 121.736381,48.8768248 C121.579086,45.6120848 121.706549,42.2185427 122.98118,39.1509489 C123.81647,37.2373171 125.026013,35.4183155 126.750832,34.1565802 C131.7463,30.6736652 139.008982,30.6289787 143.999026,34.1329227 C147.253402,36.4986763 149.151788,40.2996537 149.607401,44.1742323 C149.787853,45.731832 149.863045,47.2992009 149.832495,48.8663103 C149.905718,49.4367198 149.740288,50.0045006 149.791815,50.5722815 C152.92144,50.5302237 156.064625,50.6905692 159.188826,50.5354809 C160.653295,50.6327396 162.090645,50.2358188 163.468331,49.8099831 C165.095519,49.4787776 166.766099,49.6680379 168.401423,49.5129496 C168.567483,49.2248701 168.642019,48.8956533 168.615669,48.5666482 C168.409558,48.1592128 167.883434,47.8858369 167.98649,47.3627425 C168.53431,42.5208334 169.337056,37.6894389 169.586558,32.8291296 L169.586558,32.8291296 Z M38.0555239,19.1235305 C36.9354761,17.9327678 37.0981949,16.0243933 38.2643464,14.8914602 C43.1133668,10.0364081 49.9584045,7.35522068 56.835986,6.8373835 C60.3886799,6.51669246 63.9603576,6.57452199 67.5266114,6.60343676 C68.2479981,6.77692535 68.4541086,7.51293758 68.5219081,8.14117659 C69.1646474,12.1419288 69.8399304,16.1453096 70.3985983,20.1539476 C59.6157655,19.8306279 48.8464926,19.3390769 38.0636598,19.113016 L38.0555239,19.1235305 Z M107.387295,21.8888335 C97.404496,21.4629979 87.4216973,20.9346463 77.4388986,20.5088106 C76.3143309,16.3415795 75.2214029,12.1629577 74.1601147,7.97294522 C73.9458683,7.4472222 74.2007944,6.85841242 74.8353978,6.89258442 C80.6444591,7.19224654 86.4969121,7.74951294 92.1079989,9.35559677 C97.6567101,11.061568 102.795912,13.7900704 107.870027,16.5054298 C107.20288,17.2020128 107.292375,18.2376872 107.178472,19.1182732 C107.219152,20.0435458 107.032025,21.0003616 107.387295,21.8888335 L107.387295,21.8888335 Z M120.434631,31.6646531 C119.54458,31.8096543 118.637658,31.8300148 117.741635,31.7251112 C117.546372,31.48065 117.486708,30.8497824 117.912489,30.8077246 C118.769935,30.7444489 119.632284,30.7957493 120.475311,30.9601843 C120.852276,30.989099 120.81702,31.6567673 120.429207,31.6672817 L120.434631,31.6646531 Z M164.271077,46.279753 C164.173446,46.6109585 164.119206,47.1655963 163.655457,47.1629677 L159.492568,47.1629677 C158.87206,47.1534011 158.358725,46.6921141 158.302009,46.0931214 C158.342688,45.4307104 158.302009,44.7604135 158.499983,44.1190314 C158.592191,43.3304469 159.007124,42.305287 159.948181,42.2001424 C161.575369,42.155456 163.186285,42.1633418 164.802625,42.2001424 C164.70357,43.5696502 164.52429,44.9325944 164.265653,46.2823817 L164.271077,46.279753 Z M165.060263,35.373629 C161.572657,35.271113 158.104034,34.7269897 154.6327,34.390527 C153.571802,33.0422404 152.588567,31.6381728 151.687489,30.1847428 C151.448835,29.8167367 151.437987,29.1779832 151.988519,29.0912389 C153.905889,28.9808371 155.823259,29.2568417 157.735205,29.3935297 C160.646,29.7799318 163.457813,30.6854205 166.02844,32.0642026 C166.432525,33.1077628 166.652195,35.1764829 165.054839,35.3762576 L165.060263,35.373629 Z M36.0161149,32.6451265 C33.1525196,32.5132953 30.324916,33.3075759 27.9778059,34.9031069 C23.7227092,37.7104678 21.6236366,43.1595869 22.8738594,47.9909815 C24.4673245,54.3519022 30.8575969,58.4409825 37.5185518,57.3619943 C42.1885815,56.6443824 46.2267199,53.1956394 47.6206776,48.8268811 C48.8187507,45.1499936 48.1909667,41.1425204 45.9208584,37.9760467 C43.6507502,34.8095731 39.9946941,32.8417073 36.0215388,32.6477551 L36.0161149,32.6451265 Z M41.2149807,42.4393464 C40.4773221,43.1122718 38.9043737,44.0664591 38.2670584,42.8047239 C37.1822663,41.9267664 38.5382564,40.7701758 39.2813389,40.1761088 C39.7206797,39.8212457 40.1654444,39.3875243 40.7295363,39.2482077 C41.4451678,39.8296766 42.032686,40.5448517 42.4570676,41.3510997 C42.1222964,41.7907158 41.6999336,42.1607663 41.2149807,42.4393464 L41.2149807,42.4393464 Z M42.7174177,41.9714529 C43.2373741,42.8473939 43.4709451,43.8556137 43.3872767,44.8629295 C42.5736827,44.600068 41.6353376,44.4397225 40.9980223,43.9008564 C41.2393885,43.0807285 42.1045102,42.5366051 42.7201296,41.9714529 L42.7174177,41.9714529 Z M33.4695656,44.9812172 C32.7102112,45.4017956 32.2030709,44.0901167 33.000393,43.8509127 C33.7000839,43.6064515 34.1855283,44.6868123 33.4695656,44.9812172 L33.4695656,44.9812172 Z M32.9271696,40.0578211 C32.2437506,40.1025076 31.6525389,39.5005547 31.0613273,39.1930067 C30.8850486,39.0826049 30.4213,38.8460295 30.7494496,38.6462548 C31.5058562,38.1346233 32.3509584,37.7588946 33.2444712,37.5369792 C33.3936301,38.2729915 33.2065035,39.2955227 32.9190336,40.0578211 L32.9271696,40.0578211 Z M32.9868331,48.048811 C33.5154865,48.2109895 34.0163439,48.4484048 34.4729982,48.7532798 C34.8282676,49.5418644 34.3780789,50.5065661 34.0445054,51.1584627 C33.7895792,51.6552709 33.5834688,52.2099087 33.1576879,52.604201 C32.2642363,52.3869786 31.423757,52.0010949 30.684362,51.4686392 C30.7467376,50.8798295 31.0775992,50.3488492 31.3487972,49.8283834 C31.6823707,49.1107715 32.1651032,48.3195584 32.9759852,48.048811 L32.9868331,48.048811 Z M34.2858716,47.4862874 C33.545501,47.7833209 33.1034483,46.5689007 33.8682267,46.3454684 C34.6167332,46.0379204 35.047938,47.2549692 34.2750237,47.4862874 L34.2858716,47.4862874 Z M34.2614638,45.4464821 C34.0092496,44.8208717 34.5109659,44.1111456 35.1537052,43.9692004 C36.1164581,43.7457681 37.0114116,45.0022461 36.3035848,45.7514014 C35.8100044,46.5452432 34.5109659,46.2876389 34.2506159,45.4464821 L34.2614638,45.4464821 Z M35.2160808,42.3105442 C35.4975734,42.2400056 35.792013,42.3673259 35.9258978,42.6174802 C36.0597825,42.8676345 35.997599,43.1742685 35.7759895,43.3566948 C35.55438,43.539121 35.2321273,43.5489503 34.9991224,43.3803906 C34.8087462,43.2413363 34.7162882,43.0096079 34.760601,42.7825826 C34.8049139,42.5555574 34.9783179,42.3725811 35.2079448,42.3105442 L35.2160808,42.3105442 Z M36.5720708,46.2850103 C37.2853216,46.0221488 37.7056785,47.1945111 36.9815798,47.420572 C36.2195134,47.7570347 35.7476289,46.4979281 36.5530869,46.2850103 L36.5720708,46.2850103 Z M37.8494134,44.9365307 C37.1470106,45.2992796 36.5612229,44.1637179 37.3070174,43.869313 C37.9985723,43.5197072 38.5436803,44.6289828 37.8277176,44.9365307 L37.8494134,44.9365307 Z M37.4670242,37.5264648 C38.3963291,37.7406001 39.2716211,38.1339508 40.0406933,38.6830554 C40.2929075,38.8696871 39.8888224,39.0720904 39.7396635,39.177235 C39.126756,39.4821544 38.5653762,40.0394208 37.8683973,40.0841073 C37.4534643,39.3296947 37.4182086,38.3492213 37.4453284,37.5264648 L37.4670242,37.5264648 Z M36.2873129,48.7559085 C36.743348,48.4500081 37.2443698,48.2125148 37.773478,48.0514396 C38.6304637,48.33533 39.0806524,49.1948872 39.4847374,49.9203849 C39.6908479,50.4277077 40.0271334,50.9166301 40.0596772,51.4712679 C39.3248028,52.0058494 38.4892182,52.3960654 37.5999113,52.6199727 C37.1741304,52.2335662 36.9734439,51.6657854 36.7212297,51.1663485 C36.3578244,50.5118233 35.9130596,49.5418644 36.2656171,48.7559085 L36.2873129,48.7559085 Z M36.9029324,39.0563188 C36.9300522,39.8817039 36.8432688,40.8832062 36.1517139,41.4562443 C35.642088,41.5187862 35.1263591,41.5187862 34.6167332,41.4562443 C33.8763626,40.8542915 33.8519548,39.7949596 33.8573787,38.9301452 C33.8573787,38.4044222 33.7814433,37.8497844 34.0390814,37.3792623 C34.9169334,37.2078777 35.8200207,37.1962898 36.7022458,37.3450903 C37.0520913,37.8234983 36.8568287,38.4964237 36.8758126,39.0563188 L36.9029324,39.0563188 Z M30.0633186,39.232436 C30.5864406,39.4799577 31.0638348,39.8094564 31.4762602,40.2076522 C32.0728958,40.6676598 32.8593701,41.335328 32.9407295,42.1791135 C32.6675662,42.6514401 32.3104189,43.07325 31.8857692,43.425077 C30.828097,43.51445 29.8490722,42.7994666 29.1466693,42.1107695 C28.7924743,41.9430079 28.5061573,41.6654922 28.3330753,41.322185 C28.7333743,40.5092923 29.3184301,39.7948361 30.0443347,39.232436 L30.0633186,39.232436 Z M29.5534664,44.0717164 C28.8467444,44.4173713 28.0963845,44.6718801 27.3215067,44.8287575 C27.2996743,43.8316018 27.5296336,42.8443866 27.9913658,41.9530526 C28.5337618,42.305287 28.9514068,42.8362673 29.4314272,43.2673601 C29.6212659,43.4645063 29.9412795,43.9113708 29.5344825,44.0717164 L29.5534664,44.0717164 Z M28.3357873,45.1625916 C29.1796351,44.8578605 30.0898688,44.767373 30.9799679,44.8997301 C31.8450895,45.023275 31.6986426,46.0642066 31.9020411,46.6793025 C31.2159101,47.6019464 29.9548394,47.8595507 28.8673354,48.048811 C28.552653,48.1301663 28.2223291,48.1364795 27.9045825,48.0672113 C27.5425428,47.2616454 27.3445533,46.3958485 27.3215067,45.5174547 C27.5411771,45.2677362 27.972382,45.2309356 28.3168034,45.159963 L28.3357873,45.1625916 Z M29.1493813,48.5797912 C29.6335216,48.4764915 30.1293762,48.4340845 30.6246985,48.4536177 C31.1209908,48.4352174 30.8958965,49.2422023 30.819961,49.339461 C30.5948667,49.8967274 30.4619797,50.5065661 30.139254,51.0217747 C29.3525625,50.412233 28.7152856,49.6410217 28.2734118,48.7637943 C28.5389715,48.648239 28.8258071,48.5856625 29.1168376,48.5797912 L29.1493813,48.5797912 Z M33.8844985,52.7855754 C34.1452787,52.251628 34.4519082,51.7398747 34.8011478,51.2557214 C34.9665786,51.0349177 35.1265854,50.7457701 35.3977834,50.6458827 C35.6689814,50.7457701 35.8262763,51.0349177 35.9917071,51.2557214 C36.3404946,51.739233 36.6471053,52.2500758 36.9083563,52.7829468 C35.9007649,52.9883626 34.8602921,52.9901523 33.8519548,52.788204 L33.8844985,52.7855754 Z M40.6644487,51.0270319 C40.3846032,50.4965802 40.1636931,49.9388122 40.0054376,49.3631185 C39.4196499,48.5561337 40.4529143,48.1986421 41.1037895,48.5245903 C41.4127916,48.5277206 41.7207273,48.5602969 42.0231508,48.6218491 C42.1996743,48.6220058 42.3725934,48.670283 42.5221551,48.7611657 C42.0655202,49.6404174 41.4178882,50.4134148 40.623769,51.0270319 L40.6644487,51.0270319 Z M42.8204729,48.1355553 C42.261805,48.2144137 41.6434736,48.014639 41.0929416,47.8595507 C40.2793476,47.7149769 39.3925301,47.3706283 38.8908138,46.6819311 C39.0806524,46.0642066 38.9504773,45.0206464 39.810175,44.9023587 C40.500262,44.7967059 41.2053482,44.8289086 41.8821278,44.9969889 C42.4245238,45.1389341 43.078111,45.1967636 43.4767721,45.5779128 C43.3682929,46.4427272 43.2326939,47.3758855 42.7797932,48.1355553 L42.8204729,48.1355553 Z M133.422303,32.8028434 C127.789895,33.718261 123.460207,38.1325513 122.801572,43.6311049 C122.142937,49.1296586 125.314002,54.388026 130.580199,56.5298892 C135.846397,58.6717523 141.939246,57.1811955 145.525968,52.8735508 C149.11269,48.5659061 149.329343,42.478766 146.057419,37.9417859 C143.221472,34.0093503 138.304204,32.0094036 133.422303,32.8028434 L133.422303,32.8028434 Z M128.462092,48.8636817 C128.261405,48.6954503 128.73329,48.5797912 128.914993,48.5824199 C129.611971,48.5824199 130.355054,48.2801291 131.022201,48.5324762 C131.174072,48.950426 130.87033,49.6312373 130.751003,49.9019846 C130.614798,50.2790879 130.459114,50.6493139 130.284542,51.0112602 C129.527483,50.4281002 128.906382,49.696193 128.462092,48.8636817 L128.462092,48.8636817 Z M133.12941,48.0750971 C133.689589,48.2183847 134.211908,48.4755482 134.661678,48.8295097 C134.916604,49.7679253 134.43116,50.8272572 133.994531,51.5816697 C133.801981,51.9365327 133.63655,52.3702542 133.297552,52.6094582 C132.413886,52.3954263 131.583773,52.0110082 130.85677,51.4791537 C130.816091,51.0769756 131.087289,50.6695403 131.250007,50.2962769 C131.640533,49.4235767 132.188353,48.4404746 133.12941,48.0750971 L133.12941,48.0750971 Z M129.332637,47.9962387 C128.922778,48.1223239 128.488364,48.1547131 128.063431,48.0908688 C127.670194,47.4021717 127.586122,46.6004441 127.445099,45.8381457 C127.276957,45.2940224 128.087839,45.2519645 128.45938,45.1415627 C129.481796,44.907616 130.694051,44.5816677 131.656804,45.1415627 C131.765284,45.7592872 132.359207,46.6135872 131.683924,47.0946237 C131.027625,47.6124609 130.167927,47.8358932 129.354333,47.9857242 L129.332637,47.9962387 Z M133.557902,45.0180178 C132.784988,45.3124227 132.380903,44.0506874 133.194497,43.8614271 C133.945716,43.6274804 134.314545,44.7972141 133.574174,45.0075033 L133.557902,45.0180178 Z M132.982963,40.1314223 C132.148914,39.8332726 131.379228,39.3876176 130.713035,38.8171148 C131.445437,38.2501156 132.288591,37.8325563 133.191785,37.5895515 C133.633838,37.4370919 133.462983,37.989101 133.433151,38.2309336 C133.332808,38.8512868 133.406032,39.6030707 132.999235,40.1209079 L132.982963,40.1314223 Z M133.826388,47.3706283 C133.645463,47.2361134 133.560475,47.0127407 133.607976,46.7965765 C133.655476,46.5804123 133.826996,46.4099931 134.048771,46.3586115 C134.264105,46.2923873 134.499568,46.3480142 134.659313,46.502849 C134.819059,46.6576839 134.87645,46.8859086 134.808125,47.0946237 C134.750305,47.2837753 134.596582,47.4310553 134.400774,47.4849 C134.204966,47.5387446 133.994348,47.4916536 133.84266,47.3601138 L133.826388,47.3706283 Z M134.778293,45.9722051 C133.986395,45.4201959 134.374208,44.0717164 135.336961,43.971829 C135.693337,43.9270407 136.051518,44.0406702 136.311606,44.2810259 C136.571693,44.5213816 136.705858,44.8627441 136.67668,45.2099067 C136.66312,46.0747211 135.434593,46.5820438 134.778293,45.9722051 L134.778293,45.9722051 Z M135.339673,42.3131729 C136.123436,42.0503113 136.465145,43.34359 135.659687,43.4907924 C134.932876,43.6774241 134.623711,42.5260907 135.347809,42.3079156 L135.339673,42.3131729 Z M136.695663,46.2876389 C137.053645,46.1588367 137.422474,46.450613 137.539089,46.7660468 C137.604177,47.2286831 136.996693,47.6755477 136.58176,47.3837714 C136.1153,47.1629677 136.215643,46.4269555 136.692951,46.2823817 L136.695663,46.2876389 Z M137.97843,44.9470452 C137.240771,45.3229371 136.673968,44.1111456 137.487562,43.869313 C138.195388,43.5381075 138.707953,44.6578975 137.97843,44.941788 L137.97843,44.9470452 Z M137.615025,37.5869229 C138.613033,37.7341254 139.543242,38.2545911 140.354125,38.8276292 C139.70958,39.3476995 138.990663,39.7744674 138.219796,40.0946217 C137.948598,40.2234239 137.850967,39.8527891 137.810287,39.6661575 C137.646542,38.9762165 137.580847,38.2678217 137.615025,37.5606368 L137.615025,37.5869229 Z M136.443449,48.745394 C136.899879,48.4675979 137.386439,48.2392889 137.894359,48.0645827 C138.851688,48.4063027 139.456459,49.4630059 139.765625,50.2989055 C140.005222,50.6485698 140.15494,51.0487653 140.202254,51.4660106 C139.464767,52.0022444 138.625107,52.3917488 137.73164,52.6120868 C137.466071,52.3160721 137.245109,51.9850826 137.075341,51.6289848 C136.698375,50.8588005 136.017668,49.6890668 136.443449,48.7269937 L136.443449,48.745394 Z M139.079494,46.8002188 C139.079494,46.09575 139.125598,44.8918443 140.120894,44.886587 C141.302573,44.8047168 142.486605,45.0107489 143.565109,45.4859113 C143.597038,46.423532 143.387316,47.3540778 142.954913,48.1933848 C141.607059,48.0198962 140.023263,47.8253787 139.079494,46.7818185 L139.079494,46.8002188 Z M141.124327,43.8561699 C141.509428,43.0965002 142.209119,42.5155762 142.873554,41.9767101 C143.391542,42.7258654 143.619349,43.8877133 143.575957,44.852415 C142.737955,44.6210969 141.75893,44.4344652 141.124327,43.8403982 L141.124327,43.8561699 Z M141.989449,41.9714529 C141.175854,42.6864362 140.177846,43.548622 139.00627,43.4408487 C138.578463,43.0695987 138.218965,42.6304838 137.943174,42.1423129 C138.187252,41.1907542 138.984575,40.4915426 139.779185,39.9447907 C140.093468,39.6449531 140.468343,39.4113698 140.880249,39.2587221 C141.55282,39.7423873 142.024704,40.4573706 142.507437,41.1224102 C142.775923,41.4615016 142.276918,41.7953357 141.989449,41.9556812 L141.989449,41.9714529 Z M136.918046,37.3924054 C137.121444,37.7919549 137.007541,38.262477 137.021101,38.6909413 C137.099748,39.6424999 137.050933,40.7465183 136.340394,41.4799019 C135.692231,41.4431013 134.67795,41.8084788 134.371496,41.0382945 C133.978259,40.3101682 134.005379,39.4821544 134.054195,38.6883126 C134.094875,38.2703628 133.921308,37.770926 134.165386,37.4055485 C135.071245,37.2135637 136.008106,37.2037227 136.918046,37.3766337 L136.918046,37.3924054 Z M130.184199,39.232436 C130.596064,39.3960503 130.970319,39.6372885 131.285263,39.942162 C132.025634,40.5099429 132.912451,41.1618394 133.07517,42.1291698 C132.833824,42.6439264 132.460333,43.0901033 131.990378,43.425077 C130.962538,43.5249644 130.091992,42.8047239 129.335349,42.2080283 C128.990928,41.9241378 128.220726,41.5456172 128.600403,41.0251515 C129.021985,40.3457295 129.55722,39.739003 130.184199,39.2298073 L130.184199,39.232436 Z M128.133942,41.9740815 C128.877301,42.4598249 129.500582,43.0989548 129.959105,43.8456555 C129.376029,44.3713785 128.546163,44.4949234 127.827489,44.7682994 C127.697313,44.7919569 127.426115,44.9654455 127.426115,44.736756 C127.545443,43.7957118 127.656634,42.817867 128.136654,41.9714529 L128.133942,41.9740815 Z M134.661678,51.6657854 C134.859889,51.2706847 135.151682,50.9266129 135.51324,50.6616544 C135.928173,50.8561719 136.166827,51.2977793 136.400058,51.6710426 C136.653017,52.0180951 136.862411,52.3931258 137.023813,52.788204 C136.039682,52.9840265 135.024766,52.9840265 134.040635,52.788204 C134.132842,52.3676256 134.455568,52.0311629 134.66439,51.6631568 L134.661678,51.6657854 Z M140.771769,51.0244033 C140.565845,50.6429752 140.400468,50.2422411 140.278189,49.8283834 C140.126318,49.4156908 139.60833,48.472018 140.397516,48.4483605 C141.105356,48.4574054 141.81044,48.5357861 142.502013,48.6823072 C142.672867,48.6823072 142.718971,48.8899678 142.564388,48.9136254 C142.125457,49.7293155 141.515843,50.4473168 140.774481,51.0217747 L140.771769,51.0244033 Z" id="Shape" fill="url(#linearGradient-1)"></path>
                    <text id="?" font-family="OpenSans-Bold, Open Sans" font-size="30" font-weight="bold" fill="#FFFFFF">
                        <tspan x="75" y="47">?</tspan>
                    </text>
                    <rect id="Rectangle-14" fill="#4A4A4A" x="110" y="85" width="60" height="12" rx="6"></rect>
                </g>
            </g>
        </g>
    </g>
</svg>