<?xml version="1.0" encoding="UTF-8"?>
<svg width="85px" height="101px" viewBox="0 0 85 101" version="1.1" xmlns="http://www.w3.org/2000/svg" xmlns:xlink="http://www.w3.org/1999/xlink">
    <!-- Generator: Sketch 41.2 (35397) - http://www.bohemiancoding.com/sketch -->
    <title>Shape</title>
    <desc>Created with Sketch.</desc>
    <defs></defs>
    <g id="Page-1" stroke="none" stroke-width="1" fill="none" fill-rule="evenodd">
        <g id="6.3-Cases-—-bsp" transform="translate(-994.000000, -309.000000)" fill="#BEDAFA">
            <g id="slide" transform="translate(128.000000, 113.000000)">
                <g id="Result" transform="translate(576.000000, 165.000000)">
                    <path d="M367.545366,85.5740391 L337.021715,116.097689 C335.294019,117.825388 335.294019,120.626536 337.021715,122.354213 C338.749409,124.081912 341.550558,124.081912 343.278254,122.354213 L381.354214,84.2782596 C382.218063,83.4144213 382.649987,82.2821985 382.649987,81.1499979 C382.649987,80.0177751 382.218063,78.8855745 381.354214,78.0217141 L343.278254,39.9457609 C341.550558,38.2180622 338.749409,38.2180622 337.021715,39.9457609 C335.294019,41.6734596 335.294019,44.4746076 337.021715,46.2023063 L367.545366,76.7259567 L286.774054,76.7259567 C284.330725,76.7259567 282.350013,78.7066663 282.350013,81.1499979 C282.350013,83.5933295 284.330725,85.5740391 286.774054,85.5740391 L367.545366,85.5740391 Z" id="Shape" transform="translate(332.500000, 81.149987) rotate(270.000000) translate(-332.500000, -81.149987) "></path>
                </g>
            </g>
        </g>
    </g>
</svg>