<?xml version="1.0" encoding="UTF-8"?>
<svg width="17px" height="22px" viewBox="0 0 17 22" version="1.1" xmlns="http://www.w3.org/2000/svg" xmlns:xlink="http://www.w3.org/1999/xlink">
    <!-- Generator: Sketch 41.2 (35397) - http://www.bohemiancoding.com/sketch -->
    <title>Shape</title>
    <desc>Created with Sketch.</desc>
    <defs></defs>
    <g id="Page-1" stroke="none" stroke-width="1" fill="none" fill-rule="evenodd">
        <g id="Cases-Hover" transform="translate(-664.000000, -355.000000)" fill="#BEDAFA">
            <g id="Group-2" transform="translate(579.000000, 355.000000)">
                <path d="M94.3848105,3.26822039 L100.489541,9.87269029 C100.83508,10.2465158 101.39531,10.2465158 101.740845,9.87269029 C102.086385,9.49886524 102.086385,8.89277463 101.740845,8.51894911 L94.1256545,0.280369259 C93.9528869,0.0934562602 93.7264423,0 93.5000022,0 C93.2735577,0 93.0471175,0.0934562602 92.8743455,0.280369259 L85.2591548,8.51894911 C84.9136151,8.89277463 84.9136151,9.49886524 85.2591548,9.87269029 C85.6046945,10.2465158 86.1649242,10.2465158 86.5104639,9.87269029 L92.615194,3.26822039 L92.615194,20.7448881 C92.615194,21.2735566 93.0113359,21.7021277 93.5000022,21.7021277 C93.9886685,21.7021277 94.3848105,21.2735566 94.3848105,20.7448881" id="Shape"></path>
            </g>
        </g>
    </g>
</svg>