<?xml version="1.0" encoding="UTF-8"?>
<svg width="179px" height="105px" viewBox="0 0 179 105" version="1.1" xmlns="http://www.w3.org/2000/svg" xmlns:xlink="http://www.w3.org/1999/xlink">
    <!-- Generator: Sketch 40.3 (33839) - http://www.bohemiancoding.com/sketch -->
    <title>Group 5</title>
    <desc>Created with Sketch.</desc>
    <defs>
        <linearGradient x1="0%" y1="0%" x2="101.999998%" y2="100.999999%" id="linearGradient-1">
            <stop stop-color="#3023AE" offset="0%"></stop>
            <stop stop-color="#C96DD8" offset="100%"></stop>
        </linearGradient>
    </defs>
    <g id="Page-1" stroke="none" stroke-width="1" fill="none" fill-rule="evenodd">
        <g id="Advantages" transform="translate(-735.000000, -474.000000)">
            <g id="Гибкость" transform="translate(640.000000, 450.000000)">
                <g id="Group-5">
                    <path d="M274.201305,74.6465096 C274.0744,74.0307899 274.99815,73.4533686 274.410846,72.9024616 C272.209192,70.9286235 269.564847,69.5439909 266.843768,68.4245006 C258.960903,65.0954902 250.425806,63.9082413 241.982199,62.997919 C238.777111,62.7033163 235.551364,62.1465172 232.325616,62.2496281 C231.971463,62.2319519 231.835704,61.1831663 231.221838,61.2008425 C230.847026,61.2391409 229.935081,61.471877 229.604538,61.3451978 C229.223823,61.1566521 229.064454,60.7559924 228.424026,60.7942908 C227.898699,60.9798905 228.069873,61.5455277 227.473715,61.1183538 C227.033016,60.8245248 226.57471,60.5579017 226.10137,60.3199804 C219.204233,56.6315547 212.280534,53.0108875 205.218125,49.6583089 C201.868424,48.037994 198.430184,46.6209551 194.929968,45.3305953 C185.937423,42.3433239 176.322158,41.7717947 166.922337,41.4271095 C158.806321,41.2002655 150.640134,41.259186 142.609706,42.682117 C141.612174,42.0133689 140.018483,41.4654079 139.018,42.2991335 C136.884226,41.0058277 135.033774,39.3148082 133.012149,37.8800931 C132.920028,37.8300223 132.805349,37.8513697 132.737499,37.9312191 C132.669649,38.0110685 132.66726,38.1274922 132.731777,38.2100481 C134.670767,39.7773344 136.742564,41.1855353 138.557601,42.900123 C138.731726,43.0592085 138.557601,43.2860525 138.53399,43.4745983 C137.226574,43.8369596 135.753886,44.0048831 134.576326,44.5999806 C125.427363,47.7581215 116.892266,52.3833838 108.389633,56.9349955 C103.514122,57.1942458 98.6149995,57.5595532 93.7335851,57.759883 C93.1787447,57.9572668 92.4999507,57.6037436 92.0188924,57.9955652 C91.7857414,60.4584437 92.1162845,62.9772968 91.6824466,65.4372293 C91.4994674,68.1564122 91.590957,70.8932712 91.570298,73.6242382 C91.5230776,74.1898754 91.2751702,74.7113222 91.1482652,75.2592832 C90.5339909,75.1315729 89.9152316,75.4564612 89.6726261,76.0340883 C89.7227978,78.0697929 89.5044032,80.1290657 89.8556053,82.1441482 C90.1507332,82.5182936 90.6878658,82.3002876 91.092191,82.3297479 C90.233369,84.2181512 91.6293236,86.0682561 91.8477182,87.9271991 C92.2431895,88.7344105 92.0070872,89.7979262 92.7094915,90.4578363 C93.4237008,91.1737208 94.2175947,91.957364 95.2505421,92.1076114 C100.211641,93.9724465 105.647896,93.6189232 110.774266,92.9030387 C111.211055,92.4169442 111.954778,92.2254525 112.170221,91.5508123 C112.736866,90.1190432 112.689646,88.5488108 112.967066,87.0522291 C113.681275,82.5506999 116.142642,77.7958124 120.171137,75.4713971 C124.394416,73.2618769 129.565056,72.7993507 134.042145,74.478586 C138.197545,75.9781138 141.438048,79.937574 142.825149,84.08558 C143.601335,86.8548453 144.159127,89.7596279 144.00566,92.6290582 C143.985002,93.3125364 143.872853,94.1521541 144.061735,94.7472515 C169.864761,94.7914419 195.673691,94.7472515 221.479668,94.7678737 C222.66018,94.9475814 222.025655,93.3272665 222.12895,92.6320042 C221.957775,88.9730387 222.096486,85.1697179 223.483586,81.7317044 C224.39258,79.5869968 225.70885,77.5483461 227.585863,76.1342532 C233.022118,72.2307675 240.925641,72.180685 246.355994,76.1077389 C249.897528,78.7591632 251.963422,83.0191182 252.459237,87.3615619 C252.655613,89.1072457 252.737439,90.8638783 252.704193,92.6202201 C252.783878,93.2595079 252.60385,93.8958497 252.659924,94.5321916 C256.065699,94.4850551 259.486231,94.6647628 262.886104,94.4909472 C264.479794,94.5999502 266.043971,94.1551001 267.543221,93.6778438 C269.313988,93.3066444 271.131975,93.5187583 272.911596,93.3449427 C273.09231,93.0220768 273.173423,92.6531063 273.144747,92.284373 C272.92045,91.8277388 272.347902,91.521352 272.460051,90.9350927 C273.056209,85.508511 273.929787,80.0937134 274.201305,74.6465096 L274.201305,74.6465096 Z M131.064305,59.285925 C129.845427,57.9513748 130.022504,55.8125592 131.291553,54.5428216 C136.568439,49.1015098 144.017466,46.0965623 151.501907,45.516195 C155.368082,45.1567797 159.254916,45.2215923 163.135847,45.2539986 C163.920887,45.4484363 164.145184,46.2733239 164.218966,46.9774243 C164.918419,51.4612774 165.653287,55.9480764 166.26125,60.4407676 C154.526968,60.0784062 142.807441,59.5274992 131.073159,59.2741409 L131.064305,59.285925 Z M206.513736,62.3851453 C195.65008,61.907889 184.786425,61.3157376 173.922769,60.8384812 C172.698972,56.1680464 171.509607,51.4848456 170.354674,46.7888786 C170.121523,46.1996732 170.398943,45.5397632 171.089542,45.5780615 C177.41118,45.9139086 183.780039,46.5384663 189.886234,48.3384888 C195.924549,50.2504603 201.517222,53.3084363 207.039063,56.3516821 C206.313049,57.1323793 206.410441,58.2931139 206.286487,59.2800329 C206.330757,60.3170344 206.127118,61.3893882 206.513736,62.3851453 L206.513736,62.3851453 Z M220.712336,73.3414196 C219.743749,73.50393 218.756802,73.5267492 217.781717,73.4091782 C217.569225,73.1351977 217.504296,72.4281513 217.967647,72.3810148 C218.900751,72.3100985 219.839193,72.3675935 220.756605,72.5518844 C221.166833,72.5842907 221.128466,73.3325815 220.706433,73.3443657 L220.712336,73.3414196 Z M268.416799,89.7213295 C268.310553,90.0925289 268.251528,90.7141406 267.746859,90.7111946 L263.216647,90.7111946 C262.541387,90.7004728 261.982756,90.1834843 261.921036,89.5121616 C261.965305,88.7697628 261.921036,88.018526 262.136479,87.2996954 C262.236822,86.4158873 262.688368,85.2669368 263.712462,85.1490957 C265.483229,85.0990132 267.236288,85.1078513 268.99525,85.1490957 C268.887454,86.683975 268.692355,88.2114981 268.410897,89.7242756 L268.416799,89.7213295 Z M269.275621,77.4982637 C265.480277,77.3833686 261.705592,76.773541 257.927956,76.3964496 C256.773447,74.8853541 255.703454,73.3117417 254.722868,71.6828064 C254.463155,71.2703627 254.45135,70.5544781 255.05046,70.4572592 C257.137013,70.3335261 259.223567,70.6428589 261.304218,70.7960523 C264.471855,71.2291135 267.531775,72.2439422 270.329228,73.7892157 C270.768968,74.9587884 271.008022,77.2773116 269.269719,77.5012097 L269.275621,77.4982637 Z M128.844944,74.4402877 C125.728672,74.2925375 122.651568,75.1827295 120.097355,76.9709248 C115.466799,80.1172816 113.182509,86.2243955 114.543049,91.6391931 C116.277117,98.7682109 123.231251,103.351058 130.479952,102.141779 C135.562053,101.337514 139.956507,97.4723265 141.473464,92.5760297 C142.777252,88.4551489 142.094074,83.9637632 139.623657,80.4149299 C137.15324,76.8660966 133.174583,74.660606 128.850846,74.4432337 L128.844944,74.4402877 Z M134.502544,85.4171841 C133.699796,86.1713671 131.988055,87.2407748 131.294505,85.8266819 C130.113993,84.8427089 131.589632,83.546457 132.398283,82.8806549 C132.87639,82.4829413 133.360399,81.9968468 133.974265,81.8407074 C134.753042,82.4923902 135.392402,83.2939245 135.85423,84.197529 C135.489919,84.6902298 135.030288,85.1049648 134.502544,85.4171841 L134.502544,85.4171841 Z M136.137552,84.8927913 C136.703388,85.8745045 136.957569,87.0044693 136.866518,88.133421 C135.981135,87.8388183 134.959992,87.6591107 134.266442,87.0551751 C134.529106,86.1360147 135.470563,85.5261871 136.140504,84.8927913 L136.137552,84.8927913 Z M126.073693,88.2659922 C125.247335,88.7373565 124.695446,87.2672891 125.563122,86.9992006 C126.324552,86.7252201 126.852831,87.9360372 126.073693,88.2659922 L126.073693,88.2659922 Z M125.483438,82.7480837 C124.739715,82.7981662 124.096337,82.123526 123.452958,81.7788408 C123.261125,81.6551077 122.756456,81.3899653 123.113561,81.1660672 C123.936711,80.5926549 124.856383,80.171556 125.828737,79.9228439 C125.991057,80.7477314 125.787419,81.8937359 125.474584,82.7480837 L125.483438,82.7480837 Z M125.548366,91.7040057 C126.123666,91.8857676 126.668718,92.1518515 127.165666,92.4935409 C127.552284,93.377349 127.062371,94.4585409 126.699364,95.1891556 C126.421944,95.7459547 126.197647,96.3675664 125.734296,96.8094704 C124.762009,96.5660179 123.847368,96.1335378 123.04273,95.5367868 C123.11061,94.8768767 123.470666,94.2817793 123.765794,93.6984659 C124.128801,92.8942006 124.654128,92.0074465 125.536561,91.7040057 L125.548366,91.7040057 Z M126.962028,91.0735559 C126.156329,91.406457 125.675271,90.0453925 126.507531,89.7949802 C127.322084,89.4502951 127.791337,90.8143055 126.950223,91.0735559 L126.962028,91.0735559 Z M126.935466,88.787439 C126.660998,88.0862846 127.206984,87.2908573 127.906437,87.1317718 C128.954141,86.8813595 129.928063,88.2895604 129.157779,89.1291781 C128.620646,90.0188783 127.206984,89.7301676 126.923661,88.787439 L126.935466,88.787439 Z M127.974316,85.2728288 C128.280647,85.1937725 128.601068,85.336467 128.746766,85.6168281 C128.892464,85.8971891 128.824794,86.24085 128.58363,86.4453047 C128.342466,86.6497593 127.991779,86.6607755 127.738214,86.4718618 C127.53104,86.3160163 127.430423,86.0563062 127.478646,85.801867 C127.526869,85.5474279 127.715574,85.3423568 127.965463,85.2728288 L127.974316,85.2728288 Z M129.449956,89.7272216 C130.226142,89.4326189 130.68359,90.7465469 129.895599,90.9999052 C129.066289,91.3769967 128.552767,89.9658498 129.429297,89.7272216 L129.449956,89.7272216 Z M130.840008,88.2159098 C130.075627,88.6224615 129.438151,87.3497778 130.249752,87.0198228 C131.002328,86.6280012 131.595535,87.8712246 130.816398,88.2159098 L130.840008,88.2159098 Z M130.423878,79.9110598 C131.435182,80.1510525 132.387707,80.5919013 133.224641,81.2073116 C133.49911,81.4164795 133.059369,81.6433236 132.897049,81.7611647 C132.23006,82.1029038 131.619145,82.7274615 130.860667,82.777544 C130.409121,81.9320343 130.370754,80.8331662 130.400267,79.9110598 L130.423878,79.9110598 Z M129.140071,92.4964869 C129.636346,92.1536484 130.181577,91.8874772 130.757372,91.7069517 C131.689976,92.0251226 132.179888,92.9884734 132.619629,93.8015769 C132.843926,94.3701601 133.209884,94.9181211 133.2453,95.5397328 C132.445582,96.1388663 131.536267,96.576202 130.56849,96.8271466 C130.105139,96.3940806 129.886745,95.7577388 129.612276,95.1979937 C129.216805,94.464433 128.732795,93.377349 129.116461,92.4964869 L129.140071,92.4964869 Z M129.810012,81.6256474 C129.839524,82.5506999 129.745083,83.6731362 128.992508,84.3153701 C128.437913,84.385464 127.876678,84.385464 127.322084,84.3153701 C126.516385,83.6407299 126.489823,82.453481 126.495726,81.4842382 C126.495726,80.8950328 126.41309,80.2734211 126.693462,79.7460822 C127.648773,79.5540025 128.631547,79.5410154 129.591617,79.7077839 C129.972332,80.2439608 129.75984,80.9981437 129.780499,81.6256474 L129.810012,81.6256474 Z M122.366888,81.8230313 C122.936169,82.1004418 123.455687,82.4697284 123.904504,82.9160073 C124.553785,83.431562 125.409656,84.1798528 125.498194,85.1255275 C125.200927,85.6548887 124.812266,86.1276332 124.350147,86.5219443 C123.199148,86.6221092 122.133737,85.8207898 121.369356,85.0489308 C120.983907,84.8609116 120.672326,84.5498851 120.483972,84.1651227 C120.919592,83.2540712 121.556272,82.4533427 122.346229,81.8230313 L122.366888,81.8230313 Z M121.812047,87.2466669 C121.042966,87.6340606 120.226396,87.9193019 119.383145,88.0951227 C119.359386,86.9775579 119.609637,85.871134 120.112111,84.8721692 C120.702367,85.2669368 121.156863,85.8620342 121.67924,86.3451826 C121.885829,86.5661347 122.23408,87.0669592 121.791388,87.2466669 L121.812047,87.2466669 Z M120.486923,88.4692681 C121.40523,88.1277399 122.39578,88.0263258 123.36442,88.1746654 C124.305877,88.3131287 124.146508,89.4797553 124.367854,90.1691256 C123.621181,91.2031811 122.248836,91.4918917 121.065374,91.7040057 C120.722925,91.7951848 120.363454,91.8022603 120.01767,91.7246279 C119.623685,90.8217879 119.408225,89.8514439 119.383145,88.8669817 C119.622199,88.5871092 120.091452,88.5458648 120.466264,88.4663221 L120.486923,88.4692681 Z M121.372307,92.2991031 C121.899166,92.1833297 122.438774,92.135802 122.977802,92.1576938 C123.517886,92.1370717 123.27293,93.0415019 123.190294,93.1505049 C122.945338,93.7750626 122.800726,94.4585409 122.449523,95.0359622 C121.593416,94.3528169 120.899908,93.4884799 120.419044,92.505325 C120.708036,92.3758161 121.020181,92.3056834 121.336891,92.2991031 L121.372307,92.2991031 Z M126.525239,97.0127463 C126.80903,96.4143234 127.142715,95.8407746 127.522771,95.2981586 C127.702799,95.0506923 127.876924,94.7266294 128.172052,94.6146803 C128.46718,94.7266294 128.638354,95.0506923 128.818382,95.2981586 C129.197946,95.8400554 129.531611,96.4125837 129.815914,97.0098002 C128.719415,97.2400205 127.587134,97.2420263 126.489823,97.0156923 L126.525239,97.0127463 Z M133.903435,95.0418542 C133.598896,94.4473492 133.358494,93.8222292 133.186274,93.1770192 C132.548798,92.2725889 133.673235,91.8719292 134.381542,92.2372366 C134.717809,92.2407448 135.052917,92.2772548 135.382025,92.3462396 C135.574125,92.3464152 135.762302,92.400522 135.92506,92.502379 C135.428133,93.4878026 134.723356,94.3541413 133.859166,95.0418542 L133.903435,95.0418542 Z M136.249701,91.8012246 C135.641738,91.8896054 134.968846,91.6657073 134.369737,91.4918917 C133.484353,91.3298603 132.519285,90.9439307 131.973299,90.1720717 C132.179888,89.4797553 132.038227,88.3101826 132.973782,88.1776114 C133.724761,88.0592008 134.492062,88.095292 135.228559,88.2836684 C135.818814,88.4427538 136.530072,88.5075664 136.96391,88.9347403 C136.845859,89.9039832 136.698295,90.9498228 136.205432,91.8012246 L136.249701,91.8012246 Z M234.846008,74.6170493 C228.71661,75.6430058 224.004881,80.5903327 223.28813,86.7528505 C222.571379,92.9153683 226.02225,98.8086969 231.753124,101.209195 C237.483998,103.609694 244.114464,101.939148 248.01767,97.1113449 C251.920875,92.2835413 252.156645,85.4613638 248.596014,80.376532 C245.50983,75.9692448 240.158675,73.7277996 234.846008,74.6170493 L234.846008,74.6170493 Z M229.44812,92.617274 C229.229725,92.4287283 229.743248,92.2991031 229.940983,92.3020492 C230.699462,92.3020492 231.508112,91.9632561 232.234127,92.2460746 C232.399398,92.7144929 232.068855,93.4775139 231.938999,93.7809547 C231.790775,94.2035941 231.621355,94.6185259 231.431379,95.0241781 C230.607519,94.3706 229.931613,93.5503132 229.44812,92.617274 L229.44812,92.617274 Z M234.52727,91.733466 C235.136878,91.8940559 235.705285,92.1822724 236.194742,92.5789757 C236.472162,93.6307073 235.943884,94.8179562 235.468728,95.6634659 C235.259187,96.0611796 235.079159,96.547274 234.710249,96.8153625 C233.74861,96.5754856 232.84525,96.1446481 232.054099,95.5485709 C232.00983,95.0978288 232.304957,94.6411946 232.482034,94.2228587 C232.907018,93.2447778 233.503176,92.1429637 234.52727,91.733466 L234.52727,91.733466 Z M230.39548,91.6450851 C229.949456,91.7863954 229.47671,91.8226958 229.014282,91.7511421 C228.586347,90.9792831 228.494857,90.0807448 228.341391,89.226397 C228.158411,88.6165694 229.040844,88.569433 229.445169,88.4456999 C230.557801,88.1835035 231.877022,87.8181961 232.924726,88.4456999 C233.042777,89.1380162 233.689107,90.095475 232.954239,90.6345979 C232.240029,91.2149652 231.304474,91.4653775 230.419091,91.633301 L230.39548,91.6450851 Z M234.993572,88.3072366 C234.152458,88.6371916 233.712717,87.2230987 234.598101,87.0109847 C235.415605,86.7487883 235.816979,88.0597703 235.01128,88.2954525 L234.993572,88.3072366 Z M234.367901,82.8305725 C233.460258,82.4964204 232.622657,81.9969515 231.897681,81.357559 C232.694708,80.7220932 233.61226,80.2541126 234.595149,79.9817644 C235.076208,79.8108948 234.890277,80.4295605 234.857813,80.700595 C234.748616,81.3958573 234.8283,82.2384211 234.385609,82.8187884 L234.367901,82.8305725 Z M235.285749,90.9439307 C235.088859,90.7931728 234.996372,90.5428273 235.048064,90.3005607 C235.099755,90.0582942 235.28641,89.8672965 235.527753,89.8097104 C235.762088,89.7354894 236.018328,89.7978334 236.192169,89.9713649 C236.366009,90.1448965 236.428464,90.4006799 236.354111,90.6345979 C236.29119,90.84659 236.123902,91.0116545 235.910816,91.072001 C235.69773,91.1323475 235.468529,91.0795701 235.303456,90.9321466 L235.285749,90.9439307 Z M236.321647,89.3766444 C235.459874,88.7579787 235.881907,87.2466669 236.929611,87.1347179 C237.317432,87.0845213 237.707218,87.2118718 237.990255,87.4812511 C238.273292,87.7506303 238.419295,88.1332133 238.387542,88.5222966 C238.372786,89.4915394 237.035857,90.0601226 236.321647,89.3766444 L236.321647,89.3766444 Z M236.932562,85.2757749 C237.785481,84.9811722 238.157342,86.4306174 237.280813,86.5955949 C236.48987,86.8047628 236.153424,85.514403 236.941416,85.2698828 L236.932562,85.2757749 Z M238.408201,89.7301676 C238.79777,89.5858123 239.199144,89.9128213 239.326049,90.2663445 C239.396879,90.7848453 238.735793,91.2856699 238.284247,90.9586609 C237.776627,90.7111946 237.885825,89.8863071 238.40525,89.7242756 L238.408201,89.7301676 Z M239.804156,88.2276939 C239.001408,88.6489757 238.384591,87.2908573 239.269974,87.0198228 C240.040258,86.6486234 240.59805,87.9036309 239.804156,88.2218018 L239.804156,88.2276939 Z M239.408684,79.9788184 C240.494755,80.1437959 241.507043,80.7271092 242.389475,81.3693431 C241.688058,81.9522132 240.905705,82.4305143 240.066819,82.7893281 C239.771692,82.9336834 239.665446,82.5182936 239.621176,82.3091257 C239.442983,81.5358726 239.371491,80.7419374 239.408684,79.9493581 L239.408684,79.9788184 Z M238.133732,92.4847028 C238.630436,92.1733621 239.159929,91.9174842 239.712666,91.7216819 C240.754467,92.1046654 241.412602,93.2889682 241.749048,94.2258048 C242.009786,94.6176919 242.172715,95.066212 242.224204,95.5338407 C241.421644,96.1348261 240.507894,96.5713641 239.535589,96.8183085 C239.246587,96.4865493 239.006128,96.1155919 238.82138,95.7164944 C238.411152,94.8533085 237.670381,93.5423265 238.133732,92.4640806 L238.133732,92.4847028 Z M241.002375,90.3046429 C241.002375,89.5151077 241.052546,88.1658273 242.135666,88.1599353 C243.421613,88.068179 244.71012,88.29909 245.883789,88.8316294 C245.918535,89.8824702 245.690309,90.9253817 245.219751,91.8660372 C243.752966,91.6715994 242.02942,91.4535934 241.002375,90.2840207 L241.002375,90.3046429 Z M243.227639,87.0050927 C243.64672,86.1536909 244.40815,85.5026189 245.131213,84.8986834 C245.694907,85.7383011 245.942815,87.040445 245.895594,88.1216369 C244.983649,87.8623865 243.918238,87.6532186 243.227639,86.9874165 L243.227639,87.0050927 Z M244.169096,84.8927913 C243.283713,85.6941107 242.197642,86.6604075 240.92269,86.5396204 C240.457134,86.123541 240.065915,85.6314018 239.765789,85.0842831 C240.031404,84.0178213 240.89908,83.2341782 241.763804,82.6214046 C242.105819,82.2853609 242.513772,82.0235718 242.962023,81.8524915 C243.693941,82.3945605 244.207463,83.1958798 244.73279,83.9412246 C245.024967,84.3212621 244.481932,84.6954075 244.169096,84.8751152 L244.169096,84.8927913 Z M238.650206,79.7608124 C238.871552,80.2086085 238.747598,80.7359473 238.762354,81.2161497 C238.847941,82.2826115 238.794818,83.5199428 238.021584,84.3418843 C237.316228,84.3006399 236.21245,84.7101377 235.878955,83.8469518 C235.45102,83.0309023 235.480533,82.1029038 235.533656,81.2132037 C235.577925,80.7447854 235.389043,80.1850403 235.654658,79.7755425 C236.640448,79.5603751 237.659976,79.5493457 238.650206,79.7431362 L238.650206,79.7608124 Z M231.322182,81.8230313 C231.770388,82.0064025 232.177666,82.2767708 232.520401,82.6184585 C233.3261,83.2548004 234.291168,83.985415 234.468244,85.069553 C234.205603,85.6464677 233.799156,86.1465215 233.287733,86.5219443 C232.169199,86.6338933 231.221838,85.8266819 230.398432,85.1579338 C230.023619,84.8397629 229.185456,84.415535 229.598635,83.8322216 C230.057417,83.0707578 230.63988,82.3907675 231.322182,81.8200852 L231.322182,81.8230313 Z M229.091015,84.8957374 C229.899966,85.4401356 230.578243,86.156442 231.077226,86.9933086 C230.442701,87.582514 229.53961,87.7209772 228.757521,88.027364 C228.615859,88.0538783 228.320732,88.2483161 228.320732,87.9920117 C228.450588,86.9373341 228.57159,85.841412 229.093967,84.8927913 L229.091015,84.8957374 Z M236.194742,95.7577388 C236.410443,95.3149287 236.727983,94.9293094 237.121444,94.6323565 C237.572989,94.8503625 237.832702,95.345295 238.086512,95.7636308 C238.361792,96.1525908 238.589662,96.5729073 238.765306,97.0156923 C237.694338,97.2351609 236.589868,97.2351609 235.518899,97.0156923 C235.619243,96.544328 235.970445,96.1672365 236.197694,95.7547928 L236.194742,95.7577388 Z M242.843972,95.0389082 C242.619878,94.6114218 242.439908,94.1622979 242.30684,93.6984659 C242.141568,93.2359397 241.577874,92.178316 242.436696,92.1518018 C243.206994,92.1619389 243.974292,92.2497843 244.726888,92.4139982 C244.912818,92.4139982 244.96299,92.6467343 244.794767,92.6732486 C244.317105,93.5874353 243.653702,94.3921371 242.846924,95.0359622 L242.843972,95.0389082 Z" id="Shape-Copy-12" fill="url(#linearGradient-1)" transform="translate(182.129471, 70.094089) rotate(-26.000000) translate(-182.129471, -70.094089) "></path>
                    <path d="M243.915517,54.9579344 C243.915517,38.0850243 230.268189,24.4073271 213.433591,24.4073271 C202.440909,24.4073271 192.84084,30.2586354 187.477712,39.0032232 C182.115272,30.2586354 172.511079,24.4073271 161.518626,24.4073271 C144.684028,24.4073271 131.040594,38.0850243 131.040594,54.9579344 C131.040594,64.1442864 135.102056,72.3628442 141.503172,77.9595182 L184.696152,121.252633 C185.433809,121.991968 186.434226,122.407327 187.477712,122.407327 C188.521198,122.407327 189.521616,121.991968 190.259272,121.252633 L233.452253,77.9595182 C239.853597,72.3628442 243.915517,64.1442864 243.915517,54.9579344 Z" id="Shape" fill="#000000" opacity="0.4"></path>
                </g>
            </g>
        </g>
    </g>
</svg>