<?xml version="1.0" encoding="UTF-8"?>
<svg width="376px" height="259px" viewBox="0 0 376 259" version="1.1" xmlns="http://www.w3.org/2000/svg" xmlns:xlink="http://www.w3.org/1999/xlink">
    <!-- Generator: Sketch 40.3 (33839) - http://www.bohemiancoding.com/sketch -->
    <title>Group</title>
    <desc>Created with Sketch.</desc>
    <defs>
        <rect id="path-1" x="0" y="0" width="376" height="330"></rect>
        <filter x="-50%" y="-50%" width="200%" height="200%" filterUnits="objectBoundingBox" id="filter-3">
            <feGaussianBlur stdDeviation="3.54352679" in="SourceGraphic"></feGaussianBlur>
        </filter>
        <rect id="path-4" x="0" y="0" width="186" height="95"></rect>
        <mask id="mask-5" maskContentUnits="userSpaceOnUse" maskUnits="objectBoundingBox" x="0" y="0" width="186" height="95" fill="white">
            <use xlink:href="#path-4"></use>
        </mask>
        <filter x="-50%" y="-50%" width="200%" height="200%" filterUnits="objectBoundingBox" id="filter-6">
            <feGaussianBlur stdDeviation="3" in="SourceGraphic"></feGaussianBlur>
        </filter>
        <linearGradient x1="0%" y1="0%" x2="101.999998%" y2="100.999999%" id="linearGradient-7">
            <stop stop-color="#3023AE" offset="0%"></stop>
            <stop stop-color="#C96DD8" offset="100%"></stop>
        </linearGradient>
    </defs>
    <g id="Page-1" stroke="none" stroke-width="1" fill="none" fill-rule="evenodd">
        <g id="About-us" transform="translate(-705.000000, -326.000000)">
            <g id="Group" transform="translate(705.000000, 298.000000)">
                <mask id="mask-2" fill="white">
                    <use xlink:href="#path-1"></use>
                </mask>
                <g id="Rectangle-5"></g>
                <path d="M346.516586,72.2698801 C342.73066,64.7634426 335.152781,59.7144334 327.080561,58.1350936 C319.659424,56.7264932 311.665576,57.970452 305.245177,62.0864921 C299.276919,65.6720203 294.870053,71.824738 293.507603,78.7335874 C288.353198,77.3310849 282.96368,76.1785937 277.62239,77.2274217 C270.33991,78.3616194 263.202114,82.2764308 259.313704,88.7706273 C257.420741,91.7463719 256.612916,95.2770196 256.383832,98.7710802 C251.343969,98.9357218 246.141336,100.015039 242.029869,103.118838 C239.829451,104.911602 237.912374,107.68002 238.491114,110.680156 C239.069855,114.241293 242.186612,116.649939 245.200883,118.137811 C252.742591,121.558698 261.809521,121.351371 269.194487,117.595103 C274.409177,120.003749 280.178493,120.948914 285.881495,120.4245 C289.860334,127.345545 297.094586,132.059173 304.835236,133.44948 C314.33622,135.48006 324.608859,132.364065 331.626083,125.613759 C338.522737,129.24807 346.974755,129.754191 354.202979,126.808935 C359.761296,124.59542 364.614273,120.076923 366.483122,114.241293 C368.128914,109.070327 366.959377,103.179816 363.649707,98.929624 C359.984352,93.9659846 354.124608,91.0756098 348.162378,90.130445 C349.735828,84.2216408 349.440429,77.7091508 346.516586,72.2698801" id="Shape" fill="#F6F6F6" filter="url(#filter-3)" mask="url(#mask-2)"></path>
                <g id="Шит" mask="url(#mask-2)">
                    <g transform="translate(106.000000, 28.000000)">
                        <rect id="Rectangle-8" stroke="none" fill="#D8D8D8" fill-rule="evenodd" x="85" y="95" width="15" height="163"></rect>
                        <use id="Rectangle-9" stroke="#D8D8D8" mask="url(#mask-5)" stroke-width="16" fill="#FFFFFF" fill-rule="evenodd" xlink:href="#path-4"></use>
                        <text id=":(" stroke="none" fill="none" font-family="OpenSans, Open Sans" font-size="25" font-weight="normal">
                            <tspan x="81" y="53" fill="#9B9B9B">:(</tspan>
                        </text>
                    </g>
                </g>
                <path d="M46.740302,118.185804 C49.2926112,113.125284 54.4012938,109.721458 59.8432397,108.656734 C64.8462535,107.707116 70.235365,108.54574 74.5637238,111.320599 C78.5872685,113.737809 81.558189,117.885708 82.4766952,122.54336 C85.9515747,121.597852 89.5849576,120.820892 93.185827,121.527967 C98.0953644,122.292595 102.907361,124.931793 105.528762,129.309903 C106.804916,131.316023 107.349517,133.696235 107.503957,136.051782 C110.901617,136.162776 114.40901,136.890406 117.180785,138.982854 C118.664213,140.191459 119.956624,142.057809 119.566462,144.080372 C119.176301,146.481139 117.075116,148.104945 115.043023,149.108005 C109.958725,151.41422 103.846189,151.27445 98.8675599,148.742134 C95.3520385,150.36594 91.4626118,151.00313 87.6178913,150.649593 C84.9355281,155.315466 80.0585041,158.493193 74.8400885,159.430478 C68.4349303,160.799408 61.5095563,158.698738 56.778843,154.14797 C52.1294135,156.598067 46.4314238,156.939272 41.558464,154.953706 C37.8112839,153.461449 34.5396137,150.415271 33.2797158,146.481139 C32.1701929,142.995094 32.9586451,139.023963 35.1898835,136.158665 C37.660909,132.812391 41.6112984,130.863824 45.630779,130.226634 C44.5700263,126.243171 44.7691715,121.852728 46.740302,118.185804 L46.740302,118.185804 Z" id="Shape" fill="#F8F8F8" filter="url(#filter-6)" mask="url(#mask-2)"></path>
                <g id="Тачка" mask="url(#mask-2)">
                    <g transform="translate(4.000000, 152.000000)">
                        <path d="M369.258832,75.4154868 C369.005425,74.1696546 370.849991,73.0013142 369.677248,71.8866222 C365.280934,67.8928058 360.000643,65.0911733 354.567129,62.8260237 C338.826439,56.0901841 321.783355,53.6879333 304.922961,51.846009 C298.522965,51.249917 292.081717,50.1233031 285.640468,50.3319353 C284.933286,50.2961698 284.6622,48.1740823 283.436418,48.2098478 C282.687984,48.2873397 280.866991,48.7582524 280.206954,48.5019329 C279.446734,48.120434 279.128502,47.3097489 277.849681,47.3872408 C276.800695,47.7627788 277.142499,48.9072754 275.952077,48.042942 C275.072078,47.4484156 274.156923,46.9089369 273.211747,46.4275327 C259.43938,38.9644608 245.613974,31.6384901 231.511589,24.8549631 C224.822827,21.576457 217.957269,18.7092545 210.967955,16.0983715 C193.011429,10.0539986 173.811441,8.89758012 155.041655,8.20015248 C138.835404,7.74116164 122.528968,7.86038004 106.493619,10.7395044 C104.501724,9.38637557 101.319405,8.27764444 99.3216164,9.96458481 C95.0608456,7.34774091 91.3658202,3.92617281 87.3289904,1.02320475 C87.1450409,0.921892792 86.9160478,0.965086676 86.7805631,1.126652 C86.6450783,1.28821732 86.6403079,1.52378612 86.769138,1.6908278 C90.6409588,4.86203726 94.7779728,7.71135704 98.4022799,11.1806125 C98.7499777,11.5025022 98.4022799,11.961493 98.3551345,12.3429919 C95.7444547,13.0761851 92.8037567,13.4159575 90.452377,14.6200634 C72.1835118,21.0101696 55.1404286,30.3688141 38.1621703,39.5784356 C28.4266331,40.1029965 18.6439505,40.8421506 8.89662697,41.2474932 C7.78870869,41.6468748 6.43327676,40.9315644 5.47268804,41.7243668 C5.00712664,46.7076959 5.66716306,51.8042826 4.80086526,56.7816508 C4.43548795,62.28358 4.61817661,67.8212747 4.57692433,73.3470476 C4.48263341,74.4915442 3.9876061,75.5466271 3.73419926,76.6553582 C2.5076018,76.3969524 1.27204861,77.0543235 0.787608104,78.2230802 C0.887792203,82.3420759 0.451696712,86.508759 1.15298541,90.5860284 C1.74230364,91.3430652 2.81486282,90.9019571 3.6222288,90.9615663 C1.90731274,94.7825161 4.69478798,98.5259738 5.13088347,102.287314 C5.9205699,103.920606 5.44911531,106.072499 6.8516927,107.407745 C8.27784282,108.856248 9.86310886,110.441853 11.9257227,110.74586 C21.8321621,114.519122 32.687404,113.803812 42.9238616,112.355308 C43.7960526,111.371757 45.2811346,110.984297 45.7113369,109.619246 C46.8428279,106.722239 46.748537,103.545069 47.3024961,100.516921 C48.7286462,91.4086353 53.6435603,81.7877104 61.6877541,77.0845445 C70.120898,72.6138544 80.4457534,71.67799 89.385711,75.0757144 C97.6833117,78.1098227 104.154026,86.1212992 106.923822,94.5142747 C108.473728,100.117539 109.58754,105.995007 109.281094,111.800943 C109.239842,113.183876 109.015901,114.882738 109.393065,116.086844 C160.917158,116.176258 212.453037,116.086844 263.983023,116.128571 C266.340296,116.492187 265.073262,113.213681 265.279523,111.806904 C264.937719,104.403441 265.214698,96.7078932 267.984494,89.7514995 C269.799594,85.4119498 272.427954,81.2869931 276.176018,78.4257515 C287.031259,70.5275324 302.813202,70.4261968 313.656657,78.3721032 C320.728476,83.7369312 324.853703,92.3564216 325.843758,101.142818 C326.235885,104.674992 326.399278,108.22932 326.332892,111.78306 C326.492008,113.07658 326.132524,114.364138 326.244494,115.651697 C333.045227,115.556322 339.875425,115.919939 346.664371,115.568244 C349.84669,115.788798 352.970076,114.888699 355.963813,113.92303 C359.499722,113.171954 363.129923,113.601141 366.683511,113.249446 C367.044364,112.596167 367.206333,111.849601 367.149073,111.103515 C366.701191,110.179573 365.557914,109.559637 365.781855,108.373414 C366.972277,97.393399 368.716659,86.437228 369.258832,75.4154868 L369.258832,75.4154868 Z M83.43949,44.3352498 C81.0056057,41.634953 81.3591967,37.307325 83.8932651,34.7381685 C94.430275,23.7283492 109.304667,17.6482107 124.249778,16.4739095 C131.969846,15.7466773 139.731167,15.8778175 147.480702,15.9433876 C149.048289,16.3368083 149.496171,18.0058659 149.6435,19.4305258 C151.040184,28.5030461 152.507587,37.5815274 153.721582,46.6719304 C130.290289,45.9387373 106.888462,44.8240452 83.4571696,44.3114061 L83.43949,44.3352498 Z M234.098696,50.6061376 C212.405892,49.6404686 190.713088,48.4423237 169.020284,47.4766546 C166.576577,38.0266094 164.201625,28.5507335 161.895426,19.049027 C161.429865,17.8568429 161.983824,16.5215969 163.362829,16.5990888 C175.986025,17.2786337 188.703512,18.5423487 200.896507,22.1844709 C212.953958,26.053108 224.121538,32.240543 235.147682,38.3981734 C233.697959,39.9778172 233.892434,42.3264197 233.644921,44.3233279 C233.733319,46.4215718 233.326689,48.5913467 234.098696,50.6061376 L234.098696,50.6061376 Z M262.450796,72.7747993 C260.516699,73.1036189 258.54594,73.1497906 256.598866,72.9119004 C256.174557,72.3575349 256.044907,70.9269141 256.970136,70.8315393 C258.833381,70.688049 260.707282,70.8043829 262.539194,71.1772727 C263.358346,71.2428428 263.281735,72.7569165 262.43901,72.7807602 L262.450796,72.7747993 Z M357.708195,105.917515 C357.49604,106.668591 357.378177,107.926345 356.370442,107.920384 L347.324408,107.920384 C345.976032,107.89869 344.860546,106.852627 344.737301,105.494289 C344.825698,103.992138 344.737301,102.472103 345.167503,101.017638 C345.367871,99.2293624 346.269528,96.9046036 348.314462,96.6661668 C351.850372,96.5648312 355.350922,96.5827139 358.863259,96.6661668 C358.64801,99.7718046 358.258432,102.862558 357.696408,105.923476 L357.708195,105.917515 Z M359.423111,81.1856574 C351.844478,80.9531816 344.307098,79.7192711 336.763825,78.9562734 C334.458475,75.8987591 332.321887,72.7147498 330.363829,69.4188013 C329.845229,68.5842725 329.821656,67.1357689 331.017972,66.9390586 C335.184452,66.6886999 339.350932,67.3145965 343.505625,67.6245644 C349.830837,68.5008099 355.940957,70.5541899 361.526977,73.6808591 C362.405061,76.0473444 362.882409,80.7385884 359.411325,81.1916184 L359.423111,81.1856574 Z M79.0078169,74.9982224 C72.7851721,74.6992682 66.6407377,76.5004614 61.5404246,80.1186528 C52.2940215,86.4849154 47.7326984,98.8419026 50.4494554,109.798074 C53.9120843,124.222757 67.7982629,133.495579 82.2726399,131.048754 C92.4206999,129.421422 101.195648,121.600695 104.224744,111.693646 C106.828179,103.355555 105.463993,94.2677935 100.531006,87.0871696 C95.5980191,79.9065458 87.6533424,75.4440093 79.0196033,75.0041834 L79.0078169,74.9982224 Z M90.3050474,97.2086105 C88.7021018,98.734606 85.2840561,100.89842 83.8991583,98.0371784 C81.5418853,96.0462311 84.4884765,93.4234263 86.1032084,92.0762584 C87.057904,91.2715342 88.0243859,90.2879823 89.2501678,89.9720536 C90.8052482,91.2906528 92.0819361,92.912458 93.0041249,94.7407896 C92.2766611,95.7377085 91.358859,96.5768734 90.3050474,97.2086105 L90.3050474,97.2086105 Z M93.5698704,96.1475667 C94.6997453,98.1339414 95.2072994,100.420285 95.0254865,102.704579 C93.2575318,102.108487 91.2184907,101.744871 89.8335928,100.522882 C90.3580861,98.663075 92.2380112,97.4291646 93.5757636,96.1475667 L93.5698704,96.1475667 Z M73.4741187,102.97282 C71.8240277,103.926567 70.7220026,100.952068 72.4545982,100.409625 C73.9750392,99.855259 75.0299189,102.305197 73.4741187,102.97282 L73.4741187,102.97282 Z M72.2954823,91.808017 C70.8104003,91.9093526 69.5256866,90.5443019 68.2409728,89.8468743 C67.857916,89.5965156 66.8501818,89.0600328 67.5632569,88.6070029 C69.2069424,87.4467742 71.0433649,86.5947329 72.9849846,86.0914946 C73.3091096,87.7605523 72.9024801,90.0793501 72.2778027,91.808017 L72.2954823,91.808017 Z M72.4251323,109.929214 C73.5739058,110.296987 74.6622781,110.835374 75.6545962,111.52674 C76.4266031,113.315016 75.4483348,115.502674 74.7234734,116.980982 C74.1695143,118.107596 73.7216324,119.36535 72.7964028,120.259488 C70.8549161,119.766892 69.0285392,118.891823 67.4218205,117.684371 C67.5573637,116.349125 68.2763319,115.145019 68.8656502,113.964757 C69.5905116,112.337426 70.639498,110.543189 72.4015596,109.929214 L72.4251323,109.929214 Z M75.2479666,108.653577 C73.6391278,109.327161 72.6785391,106.573216 74.3404165,106.066538 C75.9669349,105.36911 76.9039508,108.129016 75.2243939,108.653577 L75.2479666,108.653577 Z M75.194928,104.027903 C74.646862,102.609204 75.7371007,100.999756 77.133785,100.677866 C79.2258647,100.171188 81.1706148,103.020508 79.6324943,104.71937 C78.5599351,106.519568 75.7371007,105.935397 75.1713552,104.027903 L75.194928,104.027903 Z M77.2693282,96.9165254 C77.8810169,96.7565647 78.5208395,97.0452894 78.8117735,97.6125652 C79.1027074,98.179841 78.9675815,98.8751961 78.4860201,99.2888848 C78.0044586,99.7025735 77.3041976,99.7248634 76.7978736,99.3426199 C76.3841827,99.0272859 76.1832697,98.5017946 76.2795624,97.9869686 C76.3758551,97.4721426 76.752665,97.0572066 77.2516486,96.9165254 L77.2693282,96.9165254 Z M80.2159193,105.929437 C81.7658263,105.333345 82.6792695,107.991915 81.1057898,108.504554 C79.4498056,109.267552 78.4243919,106.412271 80.174667,105.929437 L80.2159193,105.929437 Z M82.9916082,102.871485 C81.465274,103.694092 80.1923466,101.118974 81.8129717,100.451351 C83.3157332,99.6585487 84.5002628,102.174057 82.9444627,102.871485 L82.9916082,102.871485 Z M82.1606695,86.067651 C84.1800659,86.5532465 86.0820914,87.4452494 87.7532995,88.6904558 C88.3013654,89.1136811 87.4232813,89.5726719 87.0991562,89.8111087 C85.767297,90.5025755 84.5474083,91.7662905 83.0328605,91.8676262 C82.1312036,90.1568421 82.0545922,87.9334189 82.113524,86.067651 L82.1606695,86.067651 Z M79.5971352,111.532701 C80.5881078,110.83901 81.6768372,110.300446 82.8265991,109.935175 C84.6888447,110.578954 85.6671129,112.528175 86.5451971,114.173389 C86.993079,115.323847 87.7238336,116.432578 87.7945518,117.690332 C86.1976564,118.902604 84.3819156,119.787499 82.4494354,120.295254 C81.5242058,119.418999 81.0881103,118.13144 80.5400443,116.998865 C79.7503579,115.514596 78.783876,113.315016 79.5499897,111.532701 L79.5971352,111.532701 Z M80.9348875,89.5369064 C80.9938194,91.4086353 80.8052375,93.6797459 79.302476,94.9792264 C78.1950496,95.1210528 77.0743613,95.1210528 75.9669349,94.9792264 C74.3580961,93.6141757 74.3050574,91.211925 74.3168438,89.2507823 C74.3168438,88.0585983 74.1518347,86.8008441 74.711687,85.7338394 C76.6192755,85.3451898 78.5817007,85.318912 80.4987921,85.6563475 C81.2590126,86.7412349 80.8347034,88.2672305 80.8759557,89.5369064 L80.9348875,89.5369064 Z M66.0722818,89.9362881 C67.2090354,90.4975939 68.2464217,91.2447995 69.1426297,92.1477894 C70.4391299,93.1909504 72.1481527,94.7050241 72.3249482,96.6184794 C71.7313595,97.6895763 70.9552717,98.646116 70.0325003,99.4439555 C67.7341592,99.6466268 65.6067204,98.0252566 64.0803861,96.4634955 C63.3107139,96.083062 62.6885418,95.4537386 62.3124314,94.6752195 C63.1822884,92.8318199 64.4536255,91.211645 66.0310295,89.9362881 L66.0722818,89.9362881 Z M64.9643635,100.910342 C63.4286437,101.694185 61.798098,102.271335 60.1142744,102.627087 C60.0668321,100.365833 60.5665378,98.1271217 61.5698905,96.1058403 C62.7485269,96.9046036 63.656077,98.1087094 64.6991703,99.0863003 C65.111693,99.5333693 65.8070886,100.546726 64.9231112,100.910342 L64.9643635,100.910342 Z M62.3183246,103.384124 C64.1520213,102.693084 66.1299757,102.487885 68.0641774,102.788032 C69.9441025,103.068195 69.6258707,105.428719 70.0678594,106.823575 C68.5768842,108.915857 65.8365545,109.500028 63.4733884,109.929214 C62.7895778,110.113703 62.0717778,110.12802 61.3813086,109.97094 C60.5945898,108.144156 60.1643549,106.180785 60.1142744,104.188848 C60.5916222,103.62256 61.5286382,103.539108 62.2770723,103.378163 L62.3183246,103.384124 Z M64.0862793,111.13332 C65.1383251,110.899067 66.2158262,110.8029 67.2921705,110.847196 C68.3706229,110.805469 67.8814887,112.635472 67.7164796,112.856026 C67.2273455,114.119741 66.9385796,115.502674 66.2372909,116.671014 C64.5277957,115.288755 63.1429814,113.539876 62.1827814,111.550584 C62.7598477,111.288539 63.3831466,111.146634 64.0155611,111.13332 L64.0862793,111.13332 Z M74.3757756,120.670792 C74.9424557,119.459957 75.6087671,118.299452 76.3676713,117.201536 C76.7271554,116.700819 77.0748531,116.045118 77.6641714,115.818603 C78.2534896,116.045118 78.5952942,116.700819 78.9547783,117.201536 C79.7126999,118.297997 80.3789706,119.456437 80.9466739,120.664831 C78.7571593,121.130653 76.4961928,121.134712 74.3050574,120.676753 L74.3757756,120.670792 Z M89.1087314,116.682936 C88.500622,115.480029 88.0205802,114.215176 87.6766881,112.909674 C86.4037607,111.079671 88.6490632,110.268986 90.063427,111.00814 C90.7348942,111.015239 91.404044,111.089112 92.0612158,111.228694 C92.4448046,111.22905 92.8205609,111.338528 93.1455613,111.544623 C92.1532853,113.538506 90.7459691,115.291435 89.0203337,116.682936 L89.1087314,116.682936 Z M93.7938114,110.125924 C92.5798158,110.304752 91.2361702,109.851722 90.0398542,109.500028 C88.2718995,109.172177 86.3448289,108.391297 85.2545902,106.829535 C85.6671129,105.428719 85.3842402,103.062234 87.252379,102.793993 C88.7519507,102.554403 90.2841159,102.627429 91.7547703,103.008586 C92.9334067,103.330475 94.3536637,103.461616 95.2199615,104.325949 C94.9842342,106.287092 94.6895751,108.403218 93.7054136,110.125924 L93.7938114,110.125924 Z M290.673246,75.3558776 C278.433919,77.4317734 269.025428,87.4420756 267.594202,99.9111657 C266.162976,112.380256 273.053758,124.304675 284.497302,129.161786 C295.940846,134.018897 309.180718,130.638755 316.974731,120.870294 C324.768744,111.101832 325.239535,97.2980025 318.129582,87.0094763 C311.967018,78.0918776 301.281705,73.5565912 290.673246,75.3558776 L290.673246,75.3558776 Z M279.894616,111.777099 C279.45852,111.3956 280.483934,111.13332 280.878777,111.139281 C282.393325,111.139281 284.008057,110.453775 285.45778,111.026023 C285.787798,111.973809 285.127761,113.517688 284.868461,114.131663 C284.572485,114.986821 284.234182,115.826384 283.854834,116.647171 C282.209731,115.324737 280.860066,113.664988 279.894616,111.777099 L279.894616,111.777099 Z M290.036782,109.988823 C291.254063,110.313757 292.38907,110.896927 293.36643,111.699607 C293.920389,113.827656 292.86551,116.229906 291.916708,117.94069 C291.498292,118.745415 291.138807,119.728966 290.40216,120.27141 C288.481936,119.786049 286.678085,118.914303 285.098296,117.708215 C285.009898,116.796194 285.599216,115.872251 285.952807,115.025801 C286.801425,113.046775 287.991848,110.817391 290.036782,109.988823 L290.036782,109.988823 Z M281.786327,109.809995 C280.895694,110.095919 279.951705,110.169369 279.028318,110.024589 C278.173806,108.462828 277.991118,106.644747 277.684672,104.91608 C277.319295,103.68217 279.081356,103.586795 279.888722,103.336436 C282.110452,102.805914 284.744705,102.06676 286.836784,103.336436 C287.072512,104.737253 288.363119,106.674552 286.895716,107.7654 C285.469566,108.939701 283.601427,109.446379 281.833473,109.786152 L281.786327,109.809995 Z M290.967905,103.056273 C289.288348,103.723896 288.410264,100.862654 290.178219,100.433468 C291.81063,99.9029464 292.612103,102.555556 291.003264,103.032429 L290.967905,103.056273 Z M289.718551,91.9749227 C287.906148,91.2988075 286.233606,90.2881941 284.785957,88.9944627 C286.377479,87.7086765 288.209669,86.7617759 290.172326,86.210713 C291.132914,85.8649797 290.761644,87.1167729 290.696819,87.6651775 C290.478771,89.0719547 290.637887,90.7767778 289.75391,91.951079 L289.718551,91.9749227 Z M291.55133,108.391297 C291.158177,108.086257 290.973496,107.579713 291.076715,107.089517 C291.179934,106.599321 291.552651,106.212861 292.034571,106.096342 C292.502497,105.946165 293.014162,106.072311 293.361291,106.42343 C293.708421,106.77455 293.833132,107.292096 293.684662,107.7654 C293.559019,108.19434 293.224974,108.528327 292.79948,108.650431 C292.373985,108.772534 291.91631,108.665746 291.586689,108.367453 L291.55133,108.391297 Z M293.619837,105.220087 C291.899028,103.968294 292.741753,100.910342 294.833833,100.683827 C295.608244,100.58226 296.386577,100.839938 296.951752,101.384994 C297.516928,101.930049 297.808469,102.704158 297.745065,103.49142 C297.715599,105.452563 295.045987,106.60302 293.619837,105.220087 L293.619837,105.220087 Z M294.839726,96.9224864 C296.542856,96.3263943 297.285397,99.259167 295.535121,99.5929785 C293.955749,100.016204 293.283926,97.4053209 294.857405,96.9105645 L294.839726,96.9224864 Z M297.786317,105.935397 C298.564217,105.643312 299.36569,106.304974 299.619097,107.020285 C299.760533,108.069407 298.44046,109.082763 297.538803,108.421101 C296.525176,107.920384 296.743224,106.251326 297.780424,105.923476 L297.786317,105.935397 Z M300.573792,102.895328 C298.970847,103.74774 297.739172,100.999756 299.507126,100.451351 C301.045247,99.7002751 302.159058,102.239627 300.573792,102.883406 L300.573792,102.895328 Z M299.784106,86.2047521 C301.952797,86.5385636 303.974159,87.7188258 305.73622,89.0183064 C304.335613,90.1976716 302.773393,91.1654547 301.098286,91.8914698 C300.508967,92.1835549 300.296813,91.3430652 300.208415,90.9198399 C299.852594,89.3552583 299.709837,87.7488287 299.784106,86.1451429 L299.784106,86.2047521 Z M297.238251,111.508858 C298.230081,110.878898 299.287385,110.361161 300.391104,109.964979 C302.471397,110.739899 303.785577,113.136189 304.457399,115.031761 C304.978048,115.824696 305.303388,116.732221 305.406202,117.67841 C303.803631,118.894429 301.979033,119.77771 300.037513,120.277371 C299.460427,119.606098 298.980272,118.855511 298.611363,118.047987 C297.79221,116.301437 296.313022,113.648828 297.238251,111.467131 L297.238251,111.508858 Z M302.966424,107.097777 C302.966424,105.50025 303.066608,102.770149 305.229406,102.758227 C307.797216,102.57257 310.370138,103.039789 312.713748,104.117317 C312.78313,106.243563 312.327401,108.353765 311.387782,110.257064 C308.45887,109.863644 305.017252,109.422536 302.966424,107.05605 L302.966424,107.097777 Z M307.409884,100.421546 C308.246716,98.6988405 309.767157,97.3814772 311.210986,96.1594886 C312.336584,97.8583508 312.831612,100.493077 312.737321,102.680735 C310.916327,102.156174 308.788888,101.732949 307.409884,100.385781 L307.409884,100.421546 Z M309.289809,96.1475667 C307.521854,97.768937 305.353163,99.7241188 302.807308,99.4797211 C301.877675,98.637836 301.096479,97.6420534 300.497181,96.5350266 C301.027567,94.3771735 302.760163,92.7915688 304.486865,91.5516974 C305.169808,90.8717547 305.984419,90.3420569 306.879497,89.9958973 C308.341007,91.0927066 309.36642,92.7140768 310.415407,94.2221896 C310.998832,94.9911483 309.914486,95.7481851 309.289809,96.1118012 L309.289809,96.1475667 Z M298.269558,85.763644 C298.711547,86.6697039 298.464033,87.7367086 298.493499,88.7083385 C298.664401,90.8661916 298.558324,93.369778 297.01431,95.0328747 C295.60584,94.9494218 293.401789,95.7779897 292.73586,94.0314401 C291.881348,92.3802653 291.94028,90.5025755 292.046358,88.7023776 C292.134755,87.7545913 291.757592,86.6220165 292.287978,85.7934486 C294.256427,85.3580841 296.292243,85.3357675 298.269558,85.7278785 L298.269558,85.763644 Z M283.636786,89.9362881 C284.531775,90.307317 285.345039,90.8543737 286.029418,91.5457365 C287.638257,92.8332952 289.565328,94.3116034 289.918919,96.505222 C289.39447,97.6725373 288.582868,98.6843343 287.561646,99.4439555 C285.32813,99.6704705 283.436418,98.0371784 281.79222,96.6840496 C281.043786,96.0402702 279.370122,95.1818977 280.195168,94.0016355 C281.111274,92.460908 282.274349,91.085032 283.636786,89.9303271 L283.636786,89.9362881 Z M279.181541,96.1535277 C280.796872,97.2550498 282.151273,98.704407 283.147652,100.397703 C281.880618,101.589887 280.077304,101.87005 278.515611,102.489986 C278.232738,102.543634 277.64342,102.937055 277.64342,102.418455 C277.90272,100.284445 278.14434,98.066983 279.187434,96.1475667 L279.181541,96.1535277 Z M293.36643,118.13144 C293.797146,117.235469 294.431218,116.455216 295.21689,115.854368 C296.118546,116.295476 296.637147,117.296911 297.14396,118.143362 C297.693646,118.930374 298.148664,119.780832 298.499392,120.676753 C296.360858,121.12082 294.155426,121.12082 292.016892,120.676753 C292.21726,119.723006 292.918548,118.960008 293.372324,118.125479 L293.36643,118.13144 Z M306.64377,116.676975 C306.196293,115.81201 305.836925,114.903263 305.571211,113.964757 C305.241193,113.028892 304.115595,110.888922 305.830511,110.835274 C307.36866,110.855785 308.90082,111.033529 310.40362,111.365796 C310.774891,111.365796 310.875075,111.836708 310.539164,111.890357 C309.585357,113.7401 308.260657,115.368314 306.649663,116.671014 L306.64377,116.676975 Z" id="Shape" fill="url(#linearGradient-7)" fill-rule="evenodd"></path>
                        <text id="PayDrivers" fill="none" font-family="OpenSans-Bold, Open Sans" font-size="22" font-weight="bold" line-spacing="26">
                            <tspan x="125" y="94" fill="#FFFFFF">PayDrivers</tspan>
                        </text>
                    </g>
                </g>
                <rect id="Rectangle-6" fill="#EBEBEB" mask="url(#mask-2)" x="-8" y="284" width="435" height="3"></rect>
            </g>
        </g>
    </g>
</svg>