<?xml version="1.0" encoding="UTF-8"?>
<svg width="113px" height="113px" viewBox="0 0 113 113" version="1.1" xmlns="http://www.w3.org/2000/svg" xmlns:xlink="http://www.w3.org/1999/xlink">
    <!-- Generator: Sketch 40.3 (33839) - http://www.bohemiancoding.com/sketch -->
    <title>Shape</title>
    <desc>Created with Sketch.</desc>
    <defs></defs>
    <g id="Page-1" stroke="none" stroke-width="1" fill="none" fill-rule="evenodd">
        <g id="How-to-start" transform="translate(-208.000000, -262.000000)" fill="#4990E2">
            <g id="Group-2" transform="translate(128.000000, 113.000000)">
                <g id="Бриф" transform="translate(80.000000, 149.000000)">
                    <path d="M98.875,31.78125 L98.875,21.1875 L77.6875,0 L14.125,0 L14.125,31.78125 L0,42.375 L0,113 L113,113 L113,42.375 L98.875,31.78125 Z M98.875,40.609375 L103.013184,43.713123 L98.875,46.9684941 L98.875,40.609375 Z M70.625,7.0625 L70.625,28.25 L91.8125,28.25 L91.8125,52.5136602 L69.4938965,70.0527168 L56.5,58.9140508 L43.5061035,70.045875 L21.1875,52.5136602 L21.1875,7.0625 L70.625,7.0625 Z M14.125,40.609375 L14.125,46.9684941 L9.98681641,43.713123 L14.125,40.609375 Z M7.0625,50.3962344 L38.0368594,74.7355957 L7.0625,101.289051 L7.0625,50.3962344 Z M12.4904727,105.9375 L56.5,68.2111699 L100.509527,105.9375 L12.4904727,105.9375 Z M105.9375,101.289051 L74.9631406,74.7355957 L105.9375,50.3962344 L105.9375,101.289051 Z" id="Shape"></path>
                </g>
            </g>
        </g>
    </g>
</svg>