<?xml version="1.0" encoding="UTF-8"?>
<svg width="102px" height="110px" viewBox="0 0 102 110" version="1.1" xmlns="http://www.w3.org/2000/svg" xmlns:xlink="http://www.w3.org/1999/xlink">
    <!-- Generator: Sketch 40.3 (33839) - http://www.bohemiancoding.com/sketch -->
    <title>Договор</title>
    <desc>Created with Sketch.</desc>
    <defs></defs>
    <g id="Page-1" stroke="none" stroke-width="1" fill="none" fill-rule="evenodd">
        <g id="How-to-start" transform="translate(-426.000000, -264.000000)" fill="#4A4A4A">
            <g id="Group-2" transform="translate(128.000000, 113.000000)">
                <g id="Договор" transform="translate(298.000000, 151.000000)">
                    <g id="Shape">
                        <path d="M62.2717887,24.3107857 L76.4127216,24.3107857 L76.4140361,40.7471429 L83.5832165,29.6573095 L83.5832165,20.3612619 C83.5832165,19.7934524 83.3563454,19.2489524 82.9533402,18.845619 L64.6658969,0.627261905 C64.2628918,0.22602381 63.7160876,0 63.1450979,0 L6.60187113,0 C3.04396392,0 0.148793814,2.88304762 0.148793814,6.42792857 L0.148793814,103.572071 C0.148793814,107.11669 3.04370103,110 6.60187113,110 L77.1298763,110 C80.6875206,110 83.5824278,107.11669 83.5824278,103.572071 L83.5824278,75.9916667 L76.4150876,86.9185952 L76.4161392,102.856548 L7.31876289,102.856548 L7.31876289,7.14319048 L59.6084845,7.14319048 L59.6084845,21.6571667 C59.6084845,23.1235714 60.8006753,24.3107857 62.2717887,24.3107857 Z"></path>
                        <path d="M91.5891649,51.1036429 L88.6261701,49.1749762 C88.1424588,48.8604286 87.4949691,48.9953095 87.1787165,49.4772143 L71.2246546,73.7992619 L68.156768,71.8022381 L84.1108299,47.4799286 C84.4270825,46.9977619 84.291433,46.3526905 83.8077216,46.037881 L80.8447268,44.1089524 C80.3610155,43.7941429 79.713,43.9292857 79.3972732,44.4111905 L55.5090309,80.8298333 C55.4075567,80.984619 55.3494588,81.1635 55.3399948,81.3481429 L54.7156392,93.9871429 C54.6975,94.3561667 54.8770515,94.7084286 55.1880464,94.9098333 C55.4990412,95.1122857 55.8946856,95.1350714 56.2261856,94.9703333 L67.5941907,89.3255 C67.7608608,89.2435238 67.901768,89.1178095 68.003768,88.9627619 L91.8914845,52.544381 C92.2085258,52.0640476 92.0723505,51.4187143 91.5891649,51.1036429 Z"></path>
                        <path d="M101.377222,36.1808333 L90.6333093,29.185881 C90.1501237,28.8713333 89.5018454,29.0064762 89.1858557,29.488119 L81.9399124,40.535 C81.6241856,41.0169048 81.7595722,41.6627619 82.2432835,41.9775714 L92.9871959,48.972 C93.4703814,49.2868095 94.1189227,49.1516667 94.4346495,48.6697619 L101.68033,37.6231429 C101.996845,37.1412381 101.860933,36.4956429 101.377222,36.1808333 Z"></path>
                        <path d="M17.7614072,22.9067143 L38.2665619,22.9067143 C39.7184845,22.9067143 40.8954278,21.7339048 40.8954278,20.2876667 C40.8954278,18.8414286 39.7184845,17.668619 38.2665619,17.668619 L17.7614072,17.668619 C16.3094845,17.668619 15.1325412,18.8414286 15.1325412,20.2876667 C15.1325412,21.7339048 16.3100103,22.9067143 17.7614072,22.9067143 Z"></path>
                        <path d="M56.6686237,33.3829048 C56.6686237,31.9366667 55.4911546,30.7638571 54.0397577,30.7638571 L17.7614072,30.7638571 C16.3094845,30.7638571 15.1325412,31.9366667 15.1325412,33.3829048 C15.1325412,34.8291429 16.3094845,36.0019524 17.7614072,36.0019524 L54.0397577,36.0019524 C55.4916804,36.0019524 56.6686237,34.8291429 56.6686237,33.3829048 Z"></path>
                        <path d="M17.7614072,49.0971905 L38.2665619,49.0971905 C39.7184845,49.0971905 40.8954278,47.924381 40.8954278,46.4781429 C40.8954278,45.0319048 39.7184845,43.8590952 38.2665619,43.8590952 L17.7614072,43.8590952 C16.3094845,43.8590952 15.1325412,45.0319048 15.1325412,46.4781429 C15.1325412,47.924381 16.3100103,49.0971905 17.7614072,49.0971905 Z"></path>
                        <path d="M17.7614072,62.1924286 L38.2665619,62.1924286 C39.7184845,62.1924286 40.8954278,61.019619 40.8954278,59.573381 C40.8954278,58.1274048 39.7184845,56.9543333 38.2665619,56.9543333 L17.7614072,56.9543333 C16.3094845,56.9543333 15.1325412,58.1274048 15.1325412,59.573381 C15.1325412,61.019619 16.3100103,62.1924286 17.7614072,62.1924286 Z"></path>
                        <path d="M18.8742062,96.0389048 C18.362366,96.6978571 19.2856237,97.6318095 19.8037732,96.9642143 C21.4370876,94.8621667 22.7859588,92.598 23.9124278,90.208381 C24.6153866,90.648119 25.5383814,90.560119 26.2954948,90.2620714 C27.3867371,89.8333333 28.3118351,89.0059762 29.192768,88.2571905 C29.7135464,87.8145714 30.3197629,87.0835952 31.0405979,87.0136667 C31.5910825,86.9610238 32.3345258,87.4025952 32.8847474,87.496619 C34.3224742,87.7407143 36.0017938,87.326119 37.3898351,86.9843333 C38.7071598,86.6603571 40.2497784,86.1478095 41.0250309,84.9595476 C41.4885,84.2492619 40.3499381,83.5934524 39.8901495,84.2992857 C39.2694742,85.2505238 37.753933,85.547 36.7297268,85.7989524 C35.5275464,86.0951667 34.1326701,86.3871905 32.8936856,86.176619 C31.9599124,86.0184286 31.2046392,85.4558571 30.2445773,85.8819762 C28.9585361,86.4529286 27.9761289,87.6527143 26.8404588,88.4627857 C26.332299,88.8252619 25.7515825,89.1735952 25.1159227,89.2225714 C24.8543505,89.2427381 24.6411495,89.1471429 24.4639639,88.9879048 C24.6038196,88.6647143 24.7426237,88.3399524 24.8748557,88.0123095 C26.1566907,84.8422143 26.7363557,81.622881 27.331268,78.2835952 C27.6335876,76.5867143 28.1364897,73.9129286 25.6953247,73.7497619 C23.5383402,73.6062381 21.6742113,76.705881 20.9849227,78.339381 C20.3684536,79.8002857 20.2998402,81.4974286 20.3468969,83.0573333 C20.3760773,84.0295238 20.7272938,85.0389048 20.9862371,86.0440952 C18.916268,86.374881 17.0918351,88.4578095 17.4115052,90.5226667 C17.7261804,92.5545238 20.2764433,91.5053333 21.2288814,90.7534048 C22.1928866,89.9925714 22.504933,89.042119 22.5151856,88.0170238 C22.7073557,88.332619 22.8679794,88.7110714 23.0341237,89.0651667 C21.9234278,91.5472381 20.5309175,93.9064762 18.8742062,96.0389048 Z M21.1781443,88.6267381 C20.9836082,89.4905 19.8865825,90.3432619 19.0227371,90.422881 C18.3431753,90.4857381 18.7577474,89.2765238 18.8920825,89.0062381 C19.3137526,88.1571429 20.3584639,87.6029524 21.236768,87.3640952 C21.2777784,87.7902143 21.2712062,88.2124048 21.1781443,88.6267381 Z M22.2759588,86.0912381 C22.0522423,85.0499048 21.7417732,84.004119 21.6613299,83.0575952 C21.505701,81.2308095 21.8314175,79.3165476 22.7407423,77.7189286 C23.3088402,76.7205476 24.4668557,75.1905 25.6953247,75.0595476 C26.7923505,74.9432619 26.1233041,77.6013333 26.0284021,78.1353571 C25.7347577,79.7837857 25.5252371,81.4199048 25.1159227,83.0494762 C24.7357887,84.5627619 24.2541804,86.061381 23.6781959,87.5267381 C23.371933,86.7674762 22.973134,86.281381 22.2759588,86.0912381 Z"></path>
                    </g>
                </g>
            </g>
        </g>
    </g>
</svg>