<?xml version="1.0" encoding="UTF-8"?>
<svg width="331px" height="73px" viewBox="0 0 331 73" version="1.1" xmlns="http://www.w3.org/2000/svg" xmlns:xlink="http://www.w3.org/1999/xlink">
    <!-- Generator: Sketch 41.2 (35397) - http://www.bohemiancoding.com/sketch -->
    <title>old</title>
    <desc>Created with Sketch.</desc>
    <defs>
        <linearGradient x1="50.0015075%" y1="-9.42120364e-05%" x2="50.0015075%" y2="99.9998822%" id="linearGradient-1">
            <stop stop-color="#2C3E4E" offset="0%"></stop>
            <stop stop-color="#15687A" offset="100%"></stop>
        </linearGradient>
    </defs>
    <g id="Page-1" stroke="none" stroke-width="1" fill="none" fill-rule="evenodd">
        <g id="Logo" transform="translate(-84.000000, -288.000000)">
            <g id="old" transform="translate(84.000000, 288.000000)">
                <g id="__x0023_Layer_x0020_1">
                    <g id="_45405472">
                        <g id="Group">
                            <path d="M70.8983795,64.01735 C70.8983795,68.2715743 67.4599846,71.7204261 63.218203,71.7204261 L8.31539855,71.7204261 C4.073617,71.7204261 0.6352221,68.2715743 0.6352221,64.01735 L0.6352221,8.980825 C0.6352221,4.72855841 4.073617,1.27970659 8.31539855,1.27970659 L63.218203,1.27970659 C67.4599846,1.27970659 70.8983795,4.72855841 70.8983795,8.980825 L70.8983795,64.01735 Z" id="_47899448" fill="url(#linearGradient-1)"></path>
                            <polygon id="_50331280" fill="#48BBBE" points="19.3636655 54.6838023 35.765874 48.9423523 52.1720545 54.6838023 35.765874 18.3142068"></polygon>
                            <path d="M63.2181865,0.642781591 L8.315382,0.642781591 C3.72955905,0.642781591 -8.27499998e-05,4.38360023 -8.27499998e-05,8.98075864 L-8.27499998e-05,64.0172836 C-8.27499998e-05,68.614442 3.72955905,72.3552607 8.315382,72.3552607 L63.2181865,72.3552607 C67.8040095,72.3552607 71.5336513,68.614442 71.5336513,64.0172836 L71.5336513,8.98075864 C71.5336513,4.38360023 67.8040095,0.642781591 63.2181865,0.642781591 L63.2181865,0.642781591 Z M70.2650276,64.0172339 L70.2650276,64.0172339 C70.2650276,67.9128623 67.1042093,71.0814936 63.2181865,71.0814936 L8.315382,71.0814936 C4.43131215,71.0814936 1.27049385,67.9128623 1.27049385,64.0172339 L1.27049385,8.98070886 C1.27049385,5.08508045 4.43131215,1.91644909 8.315382,1.91644909 L63.2181865,1.91644909 C67.1042093,1.91644909 70.2650276,5.08508045 70.2650276,8.98070886 L70.2650276,64.0172339 Z" id="_50331304" fill="#FEFEFE"></path>
                        </g>
                        <g id="Group" transform="translate(84.405000, 14.931818)" fill="#FEFEFE">
                            <path d="M8.7911945,42.1367614 L0.9761521,42.1367614 L0.9761521,0.856422727 L15.7500723,0.856422727 C22.4215925,0.856422727 26.5851918,6.28835273 26.5851918,12.9214977 C26.5851918,19.7270886 22.308225,25.3255914 15.6347354,25.3255914 L8.7911945,25.3255914 L8.7911945,42.1368277 L8.7911945,42.1367614 Z M8.7911945,19.2077932 L8.7911945,19.2077932 L12.7260894,19.2077932 C16.6629372,19.2077932 18.6000816,16.9777925 18.6000816,13.03123 C18.6000816,9.14736455 16.6629372,6.97223 12.7260894,6.97223 L8.7911945,6.97223 L8.7911945,19.2077932 Z" id="_47901400"></path>
                            <path d="M27.570314,20.5266045 L27.570314,18.9824621 C27.570314,14.0071139 31.9039646,10.1193164 38.0066778,10.1193164 C44.0526907,10.1193164 48.7870664,12.4649225 48.7870664,18.1222069 L48.7870664,37.5650932 C48.7870664,39.6775141 48.9023961,41.051175 49.6999297,42.136768 L42.3442491,42.136768 C41.8868402,41.4509181 41.7715099,39.9675232 41.7715099,39.1660496 C40.4031923,41.5665219 38.7494799,43.0518728 34.9846528,43.0518728 C30.3655974,43.0518728 26.9995426,40.3104241 26.9995426,34.4179969 C26.9995426,28.9880246 29.5094328,26.3563248 34.927969,24.0695003 C38.3507242,22.6409732 41.4294379,21.2673123 41.4294379,18.639528 C41.4294379,16.7544191 40.2331377,15.8922062 38.065336,15.8922062 C36.0675855,15.8922062 34.4158293,17.0953839 34.4158293,19.8975669 L34.4158293,20.5265896 L27.5703355,20.5265896 L27.570314,20.5266045 Z M36.810361,28.9880345 L36.810361,28.9880345 C35.041315,30.1285053 34.4158077,32.0175345 34.4158077,33.4460616 C34.4158077,35.7857945 35.2700294,37.7336005 37.4945215,37.7336005 C39.6623232,37.7336005 41.4294164,36.4187278 41.4294164,33.6185075 L41.4294164,26.0134173 L36.810361,28.9880511 L36.810361,28.9880345 Z" id="_47901376"></path>
                            <path d="M59.9154685,10.9188091 L64.0771149,34.8765795 L64.1924446,34.8765795 L68.1859762,10.9188091 L75.5416568,10.9188091 L67.2731113,46.0814159 C66.0748565,51.2860339 64.0771077,52.546047 59.8587775,52.546047 C58.4885053,52.546047 57.4642242,52.48726 56.1506341,52.3128585 L56.1506341,46.9985083 L58.7172081,46.9985083 C59.7434471,46.9985083 60.2555885,46.0814292 60.2555885,44.9409535 C60.2555885,44.4255868 58.6018794,37.7336469 52.1023634,10.9188058 L59.9154529,10.9188058 L59.9154685,10.9188091 Z" id="_47901184"></path>
                            <path d="M95.30814,0.856422727 L109.114464,0.856422727 C116.014689,0.856422727 121.888681,4.39932841 121.888681,19.4958114 L121.888681,21.5533661 C121.888681,30.8162532 120.062951,42.1367116 109.567951,42.1367116 L95.3081234,42.1367116 L95.3081234,0.856372955 L95.30814,0.856422727 Z M103.123182,36.0190295 L103.123182,36.0190295 L108.027626,36.0190295 C113.106043,36.0190295 113.903571,29.4995323 113.903571,21.4378602 C113.903571,11.3205911 112.533299,6.97229636 108.25633,6.97229636 L103.123182,6.97229636 L103.123182,36.0189964 L103.123182,36.0190295 Z" id="_47855096"></path>
                            <path d="M133.9888,10.9188091 L133.9888,16.8680768 L134.045487,16.8680768 C135.128413,12.8058923 137.524926,10.4583118 141.289753,10.4583118 L141.289753,18.2378057 C138.609812,18.2378057 134.274192,18.4063295 134.274192,25.0414389 L134.274192,42.1367116 L127.256677,42.1367116 L127.256677,10.9187593 L133.988804,10.9187593 L133.9888,10.9188091 Z" id="_47854904"></path>
                            <path d="M144.7132,0.856422727 L151.728762,0.856422727 L151.728762,7.88736795 L144.7132,7.88736795 L144.7132,0.856422727 L144.7132,0.856422727 Z M151.728762,42.1367614 L151.728762,42.1367614 L144.7132,42.1367614 L144.7132,10.9188091 L151.728762,10.9188091 L151.728762,42.1367614 Z" id="_38798808"></path>
                            <polygon id="_38798448" points="162.396875 10.9188091 167.017635 36.246325 171.63674 10.9188091 179.05445 10.9188091 171.803895 42.1367614 162.228065 42.1367614 154.982475 10.9188091"></polygon>
                            <path d="M189.039065,27.2694818 L189.039065,34.0750727 C189.039065,36.363855 190.462115,37.5062884 192.747208,37.5062884 C195.024488,37.5062884 196.451446,36.2462835 196.451446,34.0750727 L196.451446,32.3055859 L203.46896,32.3055859 L203.46896,33.161919 C203.46896,40.1928643 198.961336,43.0518761 192.747208,43.0518761 C186.529175,43.0518761 182.021551,40.2555613 182.021551,33.161919 L182.021551,20.0092768 C182.021551,12.9215077 186.529175,10.1193197 192.747208,10.1193197 C198.96132,10.1193197 203.46896,12.9763738 203.46896,20.0092768 L203.46896,27.2694918 L189.039065,27.2694918 L189.039065,27.2694818 Z M196.451446,22.1275609 L196.451446,22.1275609 L196.451446,19.0980609 C196.451446,16.922943 195.024485,15.6648875 192.747208,15.6648875 C190.462117,15.6648875 189.039065,16.8073176 189.039065,19.0980609 L189.039065,22.1275609 L196.451446,22.1275609 Z" id="_47871968"></path>
                            <path d="M215.621675,10.9188091 L215.621675,16.8680768 L215.678362,16.8680768 C216.761288,12.8058923 219.157801,10.4583118 222.920675,10.4583118 L222.920675,18.2378057 C220.240734,18.2378057 215.907067,18.4063295 215.907067,25.0414389 L215.907067,42.1367116 L208.893458,42.1367116 L208.893458,10.9187593 L215.621679,10.9187593 L215.621675,10.9188091 Z" id="_47871608"></path>
                            <path d="M232.621835,32.0723841 L232.621835,33.7909202 C232.621835,36.4755284 234.164125,37.5062718 236.099321,37.5062718 C237.927004,37.5062718 239.580713,36.7028471 239.580713,34.5904361 C239.580713,32.8738577 238.495832,31.6158023 236.386662,30.2460734 L230.626037,26.5875457 C227.944126,24.872925 225.948345,22.4685207 225.948345,18.4690332 C225.948345,12.9763473 230.452064,10.1192932 235.985937,10.1192932 C242.03195,10.1192932 246.195549,13.6073327 246.195549,20.0092502 L246.195549,20.638273 L239.353961,20.638273 L239.353961,19.8975553 C239.353961,17.1502334 237.985644,15.6648825 235.985937,15.6648825 C233.994062,15.6648825 232.963907,16.6368294 232.963907,18.4690282 C232.963907,19.7270737 233.536646,20.5814491 235.589118,21.8943541 L240.493561,24.9865512 C243.404177,26.8128784 246.594305,29.6170241 246.594305,34.7079778 C246.594305,42.4228168 239.807448,43.051828 235.815869,43.051828 C230.452064,43.051828 225.778278,39.8498821 225.778278,33.500873 L225.778278,32.0723459 L232.621818,32.0723459 L232.621835,32.0723841 Z" id="_47866592"></path>
                        </g>
                    </g>
                </g>
            </g>
        </g>
    </g>
</svg>