<?xml version="1.0" encoding="UTF-8"?>
<svg width="180px" height="106px" viewBox="0 0 180 106" version="1.1" xmlns="http://www.w3.org/2000/svg" xmlns:xlink="http://www.w3.org/1999/xlink">
    <!-- Generator: Sketch 40.3 (33839) - http://www.bohemiancoding.com/sketch -->
    <title>Запуск</title>
    <desc>Created with Sketch.</desc>
    <defs>
        <linearGradient x1="0%" y1="0%" x2="101.999998%" y2="100.999999%" id="linearGradient-1">
            <stop stop-color="#3023AE" offset="0%"></stop>
            <stop stop-color="#C96DD8" offset="100%"></stop>
        </linearGradient>
    </defs>
    <g id="Page-1" stroke="none" stroke-width="1" fill="none" fill-rule="evenodd">
        <g id="How-to-start" transform="translate(-910.000000, -276.000000)">
            <g id="Group-2" transform="translate(128.000000, 113.000000)">
                <g id="Запуск" transform="translate(782.000000, 163.000000)">
                    <g>
                        <path d="M166.687697,79.2478974 C166.590266,78.7751817 167.299471,78.3318694 166.848571,77.9089132 C165.158262,76.3935087 163.128079,75.3304638 161.038984,74.4709807 C154.986954,71.9151493 148.434175,71.0036448 141.951637,70.3047493 C139.490946,70.0785696 137.014395,69.6510898 134.537843,69.7302527 C134.265944,69.7166819 134.161716,68.911482 133.690423,68.9250527 C133.402663,68.9544561 132.702522,69.1331381 132.448749,69.0358808 C132.156457,68.8911258 132.034102,68.5835213 131.542417,68.6129247 C131.139099,68.7554179 131.270517,69.1896831 130.81282,68.8617224 C130.474475,68.6361367 130.122614,68.4314381 129.759209,68.2487752 C124.463966,65.4170045 119.14833,62.6372551 113.7262,60.0633294 C111.154484,58.8193406 108.514792,57.7314159 105.827519,56.7407486 C98.9235365,54.4472857 91.5414643,54.0084969 84.3247976,53.7438666 C78.0937667,53.5697082 71.8242167,53.6149441 65.6588948,54.7073924 C64.8930445,54.1939644 63.6694966,53.77327 62.9013804,54.4133587 C61.2631857,53.4204295 59.8425107,52.1221577 58.2904176,51.0206622 C58.2196921,50.9822206 58.1316481,50.99861 58.0795565,51.059914 C58.0274649,51.1212179 58.0256307,51.2106016 58.0751638,51.2739835 C59.5638137,52.4772599 61.1544259,53.5583992 62.547911,54.8747655 C62.681595,54.9969025 62.547911,55.171061 62.5297844,55.315816 C61.526022,55.5940171 60.3953731,55.7229396 59.4913071,56.1798227 C52.4672359,58.6044699 45.9144573,62.1554922 39.3866027,65.6499697 C35.6434525,65.8490079 31.8821757,66.1294708 28.1344938,66.283273 C27.7085179,66.4348135 27.1873771,66.1633978 26.8180469,66.4642168 C26.6390464,68.3550797 26.8928193,70.2889168 26.5597423,72.1775178 C26.4192609,74.2651571 26.4895016,76.3663672 26.4736408,78.4630536 C26.4373876,78.8973188 26.2470579,79.297657 26.1496272,79.7183513 C25.6780211,79.6203024 25.2029717,79.8697338 25.0167125,80.3132041 C25.0552316,81.8761063 24.8875602,83.4571029 25.1571939,85.0041726 C25.3837769,85.2914209 25.7961578,85.1240478 26.1065765,85.1466658 C25.4472201,86.5964781 26.5189574,88.0168871 26.6866288,89.4440814 C26.9902499,90.063814 26.8089836,90.880323 27.348251,91.3869657 C27.8965817,91.9365825 28.5060898,92.5382207 29.2991301,92.6535724 C33.1079894,94.0852903 37.2816472,93.8138746 41.2173929,93.2642577 C41.5527356,92.8910611 42.1237246,92.7440443 42.2891302,92.2260926 C42.7241694,91.1268589 42.6879162,89.9213207 42.9009041,88.7723275 C43.4492348,85.3163006 45.3389366,81.6657592 48.4317937,79.8812008 C51.6741956,78.1848525 55.6439288,77.8297503 59.081192,79.118975 C62.2714798,80.27023 64.7593605,83.3100861 65.8243004,86.4946972 C66.4202135,88.6207871 66.8484553,90.8509196 66.7306321,93.0539106 C66.7147713,93.5786476 66.6286698,94.22326 66.7736829,94.6801431 C86.5838295,94.7140701 106.398508,94.6801431 126.21092,94.6959757 C127.117252,94.8339453 126.630099,93.5899566 126.709403,93.0561724 C126.577985,90.2470196 126.684479,87.3270388 127.749418,84.6875209 C128.447294,83.0409322 129.457854,81.4757682 130.898921,80.3901053 C135.072579,77.3932233 141.14047,77.3547728 145.309596,80.3697491 C148.028592,82.405367 149.614672,85.6759265 149.995332,89.0098163 C150.146098,90.3500564 150.20892,91.6987024 150.183396,93.0471252 C150.244573,93.5379353 150.106357,94.0264836 150.149408,94.5150319 C152.764175,94.4788431 155.390272,94.6168128 158.000507,94.4833667 C159.224055,94.5670532 160.424944,94.2255218 161.575986,93.8591105 C162.935483,93.574124 164.331234,93.7369735 165.69753,93.6035274 C165.836271,93.3556487 165.898545,93.0723734 165.87653,92.7892802 C165.704327,92.4387016 165.264756,92.2034746 165.350858,91.7533769 C165.808555,87.5871455 166.479241,83.4299614 166.687697,79.2478974 L166.687697,79.2478974 Z M56.7949701,67.4548842 C55.8591826,66.4302899 55.9951323,64.7882248 56.969439,63.8133899 C61.020742,59.6358496 66.7396955,57.328816 72.4858389,56.8832418 C75.4540754,56.6073025 78.4381728,56.657062 81.4177384,56.6819418 C82.0204491,56.8312205 82.1926521,57.4645238 82.2492978,58.0050935 C82.7862994,61.4475496 83.3504909,64.8922675 83.8172518,68.3415089 C74.808314,68.0633078 65.8107054,67.6403517 56.8017676,67.445837 L56.7949701,67.4548842 Z M114.720899,69.8342954 C106.380381,69.4678842 98.0398631,69.0132629 89.699345,68.6468516 C88.759781,65.0611483 87.8466518,61.4656439 86.9599572,57.8603384 C86.7809567,57.4079789 86.9939446,56.9013362 87.5241487,56.9307396 C92.3775553,57.1885845 97.2672152,57.6680856 101.955216,59.050044 C106.591103,60.5179507 110.88485,62.8656967 115.124217,65.2021337 C114.566823,65.8015101 114.641595,66.6926584 114.54643,67.4503606 C114.580418,68.2465134 114.424076,69.0698078 114.720899,69.8342954 L114.720899,69.8342954 Z M125.621805,78.245921 C124.878177,78.3706876 124.120453,78.3882069 123.371836,78.2979424 C123.208696,78.0875952 123.158848,77.5447638 123.514583,77.508575 C124.230969,77.4541293 124.951453,77.4982708 125.655792,77.6397593 C125.970742,77.664639 125.941287,78.2391357 125.617273,78.2481828 L125.621805,78.245921 Z M162.246671,90.8215162 C162.165101,91.1065027 162.119785,91.5837421 161.732328,91.5814803 L158.25428,91.5814803 C157.735852,91.5732486 157.306967,91.1763333 157.259581,90.6609286 C157.293568,90.0909556 157.259581,89.5141972 157.424986,88.9623185 C157.502025,88.2837792 157.848696,87.4016781 158.634939,87.3112062 C159.994437,87.2727556 161.34034,87.279541 162.690774,87.3112062 C162.608015,88.4896022 162.458228,89.6623506 162.24214,90.823778 L162.246671,90.8215162 Z M162.906028,81.4373176 C159.992171,81.3491075 157.094175,80.8809154 154.193914,80.5914053 C153.307545,79.4312691 152.486063,78.223136 151.733223,76.9725289 C151.53383,76.6558773 151.524767,76.1062604 151.98473,76.0316211 C153.586671,75.9366256 155.188613,76.1741144 156.786022,76.2917278 C159.21796,76.6242084 161.567198,77.4033382 163.714929,78.5897143 C164.052537,79.487648 164.23607,81.2676828 162.901496,81.4395794 L162.906028,81.4373176 Z M55.0910664,79.0895716 C52.6985642,78.9761371 50.3361326,79.6595777 48.375148,81.0324558 C44.8200616,83.4480557 43.0663097,88.1367624 44.110857,92.2939465 C45.4421796,97.7672149 50.7811815,101.285673 56.3463359,100.357255 C60.2480942,99.7397845 63.6219142,96.772306 64.7865505,93.0131982 C65.7875273,89.8494122 65.2630207,86.401173 63.3663703,83.6765737 C61.4697199,80.9519744 58.4151254,79.2587199 55.0955981,79.0918334 L55.0910664,79.0895716 Z M59.4346614,87.5170298 C58.8183558,88.09605 57.5041747,88.9170826 56.9717048,87.8314197 C56.0653731,87.0759792 57.1982878,86.0807883 57.819125,85.569622 C58.1861894,85.2642793 58.5577854,84.8910827 59.0290779,84.7712074 C59.6269802,85.2715336 60.1178452,85.8869076 60.4724113,86.5806456 C60.1927137,86.9589142 59.8398342,87.2773249 59.4346614,87.5170298 L59.4346614,87.5170298 Z M60.6899309,87.1144298 C61.1243488,87.8681352 61.3194948,88.7356602 61.2495908,89.6024073 C60.5698419,89.3762275 59.785865,89.2382578 59.2533951,88.7745893 C59.4550539,88.0689084 60.1778535,87.6007163 60.6921967,87.1144298 L60.6899309,87.1144298 Z M52.9634526,89.7041882 C52.3290203,90.0660758 51.9053102,88.9374387 52.5714641,88.7316152 C53.1560481,88.521268 53.5616316,89.4508668 52.9634526,89.7041882 L52.9634526,89.7041882 Z M52.5102867,85.4678411 C51.9392977,85.5062916 51.4453469,84.98834 50.9513961,84.7237096 C50.8041171,84.6287141 50.4166603,84.4251523 50.6908257,84.2532557 C51.3227951,83.8130212 52.0288687,83.4897246 52.7753887,83.2987771 C52.9000094,83.9320804 52.7436671,84.8119198 52.5034892,85.4678411 L52.5102867,85.4678411 Z M52.5601349,92.3437061 C53.001819,92.4832529 53.4202799,92.6875375 53.8018095,92.9498679 C54.0986331,93.6284072 53.7225054,94.4584869 53.4438084,95.0194128 C53.2308205,95.4468925 53.0586174,95.9241318 52.7028822,96.2634015 C51.9564132,96.0764921 51.2542021,95.7444576 50.6364458,95.2863049 C50.6885598,94.7796622 50.964991,94.3227791 51.191574,93.8749431 C51.470271,93.2574723 51.8735886,92.5766712 52.5510716,92.3437061 L52.5601349,92.3437061 Z M53.6454672,91.8596814 C53.0268958,92.1152645 52.6575656,91.070314 53.2965295,90.8780612 C53.9218984,90.6134308 54.2821653,91.6606432 53.6364039,91.8596814 L53.6454672,91.8596814 Z M53.6250748,90.1045264 C53.4143526,89.5662185 53.8335311,88.9555331 54.3705327,88.8333961 C55.1749021,88.6411433 55.9226258,89.7222825 55.3312443,90.3668949 C54.9188634,91.0499578 53.8335311,90.8283016 53.6160115,90.1045264 L53.6250748,90.1045264 Z M54.4226467,87.4062017 C54.6578308,87.3455066 54.9038318,87.4550596 55.015691,87.6703054 C55.1275502,87.8855513 55.0755966,88.1493952 54.8904443,88.3063643 C54.705292,88.4633333 54.4360535,88.4717909 54.2413804,88.3267534 C54.0823232,88.2071038 54.0050755,88.0077126 54.0420985,87.8123682 C54.0791214,87.6170238 54.2239985,87.4595814 54.4158492,87.4062017 L54.4226467,87.4062017 Z M55.5555614,90.8260398 C56.1514746,90.5998601 56.5026781,91.6086218 55.8977017,91.8031364 C55.2610036,92.0926465 54.8667493,91.0092454 55.5397006,90.8260398 L55.5555614,90.8260398 Z M56.6227671,89.6657376 C56.0359173,89.9778657 55.5464981,89.0007691 56.1696012,88.7474477 C56.7473877,88.4466286 57.2028194,89.4011073 56.6046405,89.6657376 L56.6227671,89.6657376 Z M56.3032851,83.2897299 C57.0797091,83.4739832 57.8110059,83.8124426 58.4535573,84.2849209 C58.6642794,84.4455085 58.3266708,84.6196669 58.2020502,84.7101389 C57.6899728,84.9725074 57.2209461,85.4520085 56.6386279,85.4904591 C56.291956,84.8413231 56.2625002,83.9976726 56.2851585,83.2897299 L56.3032851,83.2897299 Z M55.3176494,92.9521297 C55.6986616,92.688917 56.1172598,92.4845654 56.5593239,92.3459679 C57.275326,92.590242 57.6514537,93.3298499 57.9890622,93.954106 C58.1612653,94.390633 58.4422281,94.8113274 58.4694181,95.2885667 C57.8554387,95.7485485 57.1573169,96.0843108 56.4143108,96.2769723 C56.0585756,95.944488 55.8909042,95.4559397 55.6801821,95.0261981 C55.3765609,94.4630105 55.0049649,93.6284072 55.2995227,92.9521297 L55.3176494,92.9521297 Z M55.8319926,84.6060962 C55.8546509,85.3163006 55.7821444,86.1780456 55.2043579,86.6711175 C54.778571,86.7249317 54.3476853,86.7249317 53.9218984,86.6711175 C53.303327,86.1531658 53.2829345,85.2416613 53.2874662,84.4975299 C53.2874662,84.0451703 53.224023,83.567931 53.4392768,83.1630692 C54.1727124,83.0156009 54.9272319,83.0056301 55.6643213,83.1336659 C55.9566132,83.545313 55.7934735,84.1243333 55.8093343,84.6060962 L55.8319926,84.6060962 Z M50.1175708,84.7576366 C50.5546335,84.9706172 50.953491,85.2541352 51.298068,85.5967636 C51.7965504,85.9925781 52.453641,86.5670748 52.5216158,87.2931118 C52.293391,87.6995263 51.9949983,88.0624735 51.6402082,88.3652039 C50.7565347,88.4421051 49.9385703,87.8268961 49.3517205,87.2343051 C49.0557945,87.0899543 48.8165798,86.8511652 48.6719717,86.5557658 C49.006417,85.8563105 49.4952247,85.2415551 50.10171,84.7576366 L50.1175708,84.7576366 Z M49.6915949,88.9216062 C49.1011365,89.2190258 48.4742191,89.4380184 47.8268173,89.5730039 C47.8085765,88.714999 48.000705,87.8655476 48.3864772,87.0985972 C48.839643,87.4016781 49.1885808,87.8585612 49.5896326,88.2294961 C49.7482406,88.3991309 50.0156085,88.7836365 49.6757341,88.9216062 L49.6915949,88.9216062 Z M48.6742375,89.8602522 C49.379263,89.5980456 50.1397532,89.5201854 50.8834212,89.6340724 C51.6062208,89.7403769 51.483866,90.6360488 51.6538032,91.1653095 C51.0805483,91.9592005 50.0269377,92.1808566 49.1183401,92.3437061 C48.8554264,92.4137084 48.5794444,92.4191406 48.3139706,92.3595387 C48.0114905,91.6663877 47.8460724,90.9214109 47.8268173,90.1655949 C48.0103495,89.9507241 48.3706163,89.9190589 48.6583767,89.8579904 L48.6742375,89.8602522 Z M49.3539863,92.8005892 C49.7584802,92.7117047 50.1727612,92.6752156 50.5865975,92.6920229 C51.0012443,92.6761903 50.8131805,93.3705622 50.7497372,93.4542487 C50.5616734,93.9337499 50.4506478,94.4584869 50.1810141,94.9017993 C49.5237419,94.3773178 48.9913041,93.7137274 48.6221234,92.9589151 C48.8439957,92.8594852 49.0836436,92.8056412 49.3267964,92.8005892 L49.3539863,92.8005892 Z M53.3101245,96.4194655 C53.5280034,95.9600293 53.784189,95.51969 54.0759748,95.1030993 C54.2141904,94.9131083 54.3478744,94.6643105 54.5744573,94.5783622 C54.8010402,94.6643105 54.9324583,94.9131083 55.0706739,95.1030993 C55.3620821,95.5191379 55.6182519,95.9586937 55.8365243,96.4172037 C54.9946928,96.5939542 54.1253892,96.5954941 53.2829345,96.4217273 L53.3101245,96.4194655 Z M58.974698,94.9063229 C58.7408902,94.4498945 58.5563222,93.9699618 58.4241015,93.4746049 C57.9346823,92.780233 58.7979633,92.4726285 59.3417624,92.7530915 C59.5999303,92.7557849 59.8572071,92.7838153 60.1098786,92.836778 C60.257362,92.8369128 60.401834,92.878453 60.5267912,92.9566533 C60.1452778,93.7132074 59.6041884,94.3783347 58.9407106,94.9063229 L58.974698,94.9063229 Z M60.7760324,92.4183454 C60.3092716,92.4861993 59.7926625,92.3143027 59.3326991,92.1808566 C58.6529503,92.0564578 57.912024,91.7601623 57.4928456,91.1675713 C57.6514537,90.6360488 57.5426938,89.7381151 58.2609618,89.6363342 C58.8375219,89.545425 59.4266136,89.5731339 59.9920554,89.717759 C60.4452213,89.839896 60.9912862,89.8896556 61.3243631,90.2176162 C61.23373,90.9617477 61.1204385,91.7646859 60.742045,92.4183454 L60.7760324,92.4183454 Z M136.472862,79.2252794 C131.767046,80.0129525 128.14964,83.8112384 127.599358,88.5424811 C127.049075,93.2737238 129.698465,97.7982977 134.098315,99.6412686 C138.498165,101.484239 143.588673,100.201687 146.58534,96.4951641 C149.582007,92.7886417 149.763018,87.5509485 147.029361,83.6470939 C144.659959,80.2634209 140.551636,78.5425624 136.472862,79.2252794 L136.472862,79.2252794 Z M132.32866,93.0448634 C132.160988,92.9001083 132.555243,92.8005892 132.707053,92.802851 C133.289371,92.802851 133.910209,92.5427443 134.467603,92.7598769 C134.594489,93.1195027 134.340716,93.7053083 134.24102,93.9382735 C134.127222,94.2627528 133.99715,94.5813146 133.851297,94.8927521 C133.218783,94.3909707 132.699859,93.7611996 132.32866,93.0448634 L132.32866,93.0448634 Z M136.228152,92.3663241 C136.696176,92.4896162 137.132567,92.710893 137.508346,93.01546 C137.721334,93.8229218 137.31575,94.7344262 136.950952,95.3835622 C136.790078,95.6889049 136.651862,96.0621015 136.368634,96.2679251 C135.63034,96.0837608 134.936789,95.7529874 134.329387,95.2953521 C134.2954,94.949297 134.521983,94.5987184 134.657932,94.2775431 C134.984212,93.5266263 135.441909,92.6807139 136.228152,92.3663241 L136.228152,92.3663241 Z M133.055991,92.2984701 C132.713558,92.4069604 132.35061,92.4348298 131.995583,92.3798948 C131.667037,91.7873038 131.596797,91.0974555 131.478974,90.4415342 C131.338492,89.9733421 132.015975,89.9371533 132.326394,89.8421578 C133.180612,89.6408578 134.193437,89.3603949 134.997807,89.8421578 C135.08844,90.3736803 135.584657,91.1087645 135.020465,91.5226735 C134.472134,91.9682477 133.753866,92.1605005 133.074118,92.2894229 L133.055991,92.2984701 Z M136.586153,89.7358533 C135.940392,89.9891747 135.602783,88.9035118 136.282532,88.7406623 C136.910167,88.5393624 137.21832,89.5458623 136.599748,89.7268061 L136.586153,89.7358533 Z M136.105797,85.5311714 C135.408959,85.2746278 134.765895,84.891163 134.209298,84.4002726 C134.821212,83.9123968 135.525658,83.5531071 136.280266,83.344013 C136.649596,83.2128288 136.506849,83.6878063 136.481925,83.8958917 C136.398089,84.4296759 136.459267,85.0765501 136.119392,85.5221242 L136.105797,85.5311714 Z M136.81047,91.7601623 C136.659309,91.6444186 136.588303,91.4522171 136.627989,91.2662181 C136.667675,91.0802192 136.810978,90.9335816 136.996268,90.8893702 C137.176178,90.8323874 137.372904,90.8802517 137.50637,91.0134797 C137.639835,91.1467077 137.687785,91.3430841 137.630701,91.5226735 C137.582393,91.6854294 137.453958,91.8121568 137.290363,91.8584876 C137.126767,91.9048183 136.950799,91.8642987 136.824065,91.7511151 L136.81047,91.7601623 Z M137.605776,90.5568859 C136.944154,90.0819084 137.268168,88.9216062 138.072537,88.8356579 C138.370285,88.7971197 138.669541,88.8948924 138.886842,89.101707 C139.104142,89.3085216 139.216235,89.6022478 139.191857,89.9009646 C139.180528,90.645096 138.154107,91.081623 137.605776,90.5568859 L137.605776,90.5568859 Z M138.074803,87.4084635 C138.729628,87.1822837 139.015122,88.2950882 138.342171,88.4217489 C137.734929,88.5823365 137.476624,87.5916691 138.081601,87.4039399 L138.074803,87.4084635 Z M139.207718,90.8283016 C139.506807,90.7174735 139.81496,90.9685331 139.912391,91.2399488 C139.966771,91.6380252 139.459225,92.0225308 139.112553,91.7714713 C138.72283,91.5814803 138.806666,90.9481769 139.205452,90.823778 L139.207718,90.8283016 Z M140.279455,89.6747848 C139.66315,89.9982219 139.189591,88.9555331 139.86934,88.7474477 C140.460721,88.4624612 140.888963,89.4259871 140.279455,89.6702612 L140.279455,89.6747848 Z M139.975834,83.3417513 C140.809659,83.4684119 141.586839,83.9162479 142.264322,84.4093198 C141.725812,84.8568154 141.125164,85.2240288 140.481114,85.4995063 C140.254531,85.6103343 140.172961,85.2914209 140.138974,85.1308332 C140.002166,84.537172 139.947279,83.9276321 139.975834,83.3191333 L139.975834,83.3417513 Z M138.996996,92.9430825 C139.378338,92.7040522 139.784853,92.5076032 140.209214,92.3572769 C141.009052,92.6513106 141.514332,93.5605532 141.772637,94.2798049 C141.972817,94.5806743 142.097905,94.9250235 142.137435,95.2840431 C141.521274,95.7454467 140.819747,96.0805966 140.073265,96.2701869 C139.851385,96.0154804 139.666773,95.7306797 139.524934,95.4242745 C139.209984,94.7615678 138.64126,93.7550678 138.996996,92.9272499 L138.996996,92.9430825 Z M141.199382,91.2693522 C141.199382,90.6631904 141.237901,89.627287 142.06946,89.6227635 C143.05674,89.552318 144.045985,89.7295988 144.947064,90.1384533 C144.97374,90.9452312 144.79852,91.7459214 144.437252,92.468105 C143.311135,92.3188263 141.987891,92.1514533 141.199382,91.2535196 L141.199382,91.2693522 Z M142.907817,88.7361388 C143.229565,88.0824792 143.814149,87.5826219 144.369277,87.1189534 C144.802051,87.7635657 144.99238,88.7632803 144.956127,89.5933601 C144.255986,89.3943219 143.438021,89.2337342 142.907817,88.722568 L142.907817,88.7361388 Z M143.630617,87.1144298 C142.950868,87.7296388 142.117043,88.4715084 141.138204,88.3787747 C140.780776,88.0593318 140.480419,87.6814944 140.249999,87.2614467 C140.453924,86.4426759 141.120078,85.8410377 141.783966,85.3705838 C142.046546,85.1125879 142.35975,84.9116006 142.703893,84.7802546 C143.265818,85.1964254 143.660073,85.8116343 144.06339,86.3838692 C144.287707,86.6756411 143.870795,86.9628894 143.630617,87.100859 L143.630617,87.1144298 Z M139.393516,83.1743782 C139.563453,83.5181715 139.468288,83.9230333 139.479617,84.2917063 C139.545326,85.110477 139.504541,86.0604321 138.910894,86.6914736 C138.369361,86.6598085 137.521941,86.9741983 137.265902,86.3114916 C136.937357,85.6849737 136.960015,84.9725074 137.0008,84.2894445 C137.034787,83.9298187 136.889774,83.5000771 137.093699,83.1856872 C137.850534,83.0204935 138.633272,83.0120257 139.393516,83.1608074 L139.393516,83.1743782 Z M133.767461,84.7576366 C134.11157,84.898419 134.424256,85.1059929 134.687388,85.368322 C135.30596,85.8568703 136.046886,86.4177961 136.182836,87.2501377 C135.981194,87.6930611 135.669146,88.076975 135.276504,88.3652039 C134.417754,88.4511522 133.690423,87.8314197 133.058257,87.3179916 C132.770496,87.0737174 132.127001,86.7480186 132.444217,86.3001826 C132.796444,85.7155725 133.243627,85.1935133 133.767461,84.7553748 L133.767461,84.7576366 Z M132.054494,87.1166916 C132.675562,87.5346506 133.196306,88.0845913 133.579398,88.7270916 C133.092244,89.1794511 132.3989,89.2857556 131.798456,89.5209826 C131.689696,89.5413387 131.463113,89.6906174 131.463113,89.493841 C131.562809,88.6841174 131.655708,87.8427287 132.05676,87.1144298 L132.054494,87.1166916 Z M137.508346,95.4559397 C137.673949,95.1159745 137.917739,94.8199171 138.219816,94.591933 C138.566488,94.759306 138.765881,95.139288 138.960742,95.4604633 C139.172087,95.7590854 139.347034,96.0817814 139.481883,96.4217273 C138.659653,96.5902232 137.811701,96.5902232 136.989471,96.4217273 C137.066509,96.0598397 137.336143,95.7703296 137.510612,95.4536779 L137.508346,95.4559397 Z M142.613259,94.9040611 C142.441212,94.5758605 142.303041,94.2310478 142.200878,93.8749431 C142.073992,93.5198409 141.641219,92.7078555 142.300575,92.6874993 C142.891968,92.695282 143.481057,92.7627249 144.058859,92.8887993 C144.201606,92.8887993 144.240125,93.0674813 144.110973,93.0878375 C143.74425,93.7896999 143.234925,94.4075057 142.615525,94.9017993 L142.613259,94.9040611 Z" id="Shape-Copy-10" fill="url(#linearGradient-1)"></path>
                        <polygon id="Rectangle-19" fill="#4A4A4A" points="0 19.2167806 98 0 98 106 0 106"></polygon>
                        <rect id="Rectangle-2" fill="#4A4A4A" transform="translate(97.552342, 20.827796) rotate(-11.000000) translate(-97.552342, -20.827796) " x="64.0523421" y="17.3277965" width="67" height="7"></rect>
                        <rect id="Rectangle-2-Copy" fill="#9B9B9B" x="98" y="101" width="82" height="5"></rect>
                    </g>
                </g>
            </g>
        </g>
    </g>
</svg>