<?xml version="1.0" encoding="UTF-8"?>
<svg width="234px" height="106px" viewBox="0 0 234 106" version="1.1" xmlns="http://www.w3.org/2000/svg" xmlns:xlink="http://www.w3.org/1999/xlink">
    <!-- Generator: Sketch 40.3 (33839) - http://www.bohemiancoding.com/sketch -->
    <title>Group 4</title>
    <desc>Created with Sketch.</desc>
    <defs>
        <linearGradient x1="0%" y1="0%" x2="101.999998%" y2="100.999999%" id="linearGradient-1">
            <stop stop-color="#3023AE" offset="0%"></stop>
            <stop stop-color="#C96DD8" offset="100%"></stop>
        </linearGradient>
    </defs>
    <g id="Page-1" stroke="none" stroke-width="1" fill="none" fill-rule="evenodd">
        <g id="Advantages" transform="translate(-341.000000, -468.000000)">
            <g id="рамок-нет" transform="translate(256.000000, 468.000000)">
                <g id="Флаг" transform="translate(84.080954, 0.179781)">
                    <g id="Group-4">
                        <path d="M114.464963,1.88399877 L114.464963,17.2179988 C106.241963,11.0839988 98.0209626,23.3519988 89.7979626,17.2179988 L89.7979626,1.88399877 C98.0209626,8.01699877 106.241963,-4.25000123 114.464963,1.88399877 Z" id="Shape" fill="url(#linearGradient-1)"></path>
                        <rect id="Rectangle-15" fill="#4A4A4A" x="88.5059626" y="1.21799877" width="2" height="40"></rect>
                        <path d="M233.95867,68.9104416 C233.830741,68.2897536 234.761945,67.707673 234.169901,67.1523206 C231.950482,65.1625552 229.284799,63.7667496 226.541763,62.638226 C218.59529,59.282353 209.991322,58.085524 201.479581,57.1678561 C198.248631,56.8708762 194.996854,56.3095842 191.745078,56.4135271 C191.388066,56.3957083 191.251212,55.3384599 190.632393,55.3562787 C190.254556,55.394886 189.335252,55.6295002 189.002042,55.5017988 C188.618255,55.3117317 188.4576,54.907839 187.812005,54.9464464 C187.282438,55.1335437 187.454994,55.7037451 186.854025,55.2731243 C186.40977,54.9769244 185.947766,54.7081499 185.470607,54.4683087 C178.517815,50.7501203 171.538247,47.1002372 164.41885,43.7206059 C161.04212,42.0872164 157.576136,40.658743 154.047676,39.357971 C144.982568,36.3465948 135.289716,35.7704537 125.814045,35.4229872 C117.63254,35.1943127 109.400458,35.2537087 101.30523,36.6881217 C100.299649,36.0139773 98.6930989,35.4615946 97.6845424,36.3020478 C95.5335503,34.998306 93.6681671,33.2936413 91.6302285,31.8473492 C91.5373641,31.7968744 91.4217601,31.8183941 91.3533625,31.8988878 C91.2849649,31.9793815 91.2825566,32.0967446 91.3475947,32.1799667 C93.3022307,33.7598998 95.3907459,35.1794637 97.220428,36.9078868 C97.3959584,37.0682559 97.220428,37.2969305 97.1966272,37.4869976 C95.8786611,37.8522829 94.3940898,38.0215614 93.2070277,38.6214609 C83.9842399,41.8050855 75.3802714,46.46767 66.809029,51.0560096 C61.8941756,51.3173519 56.9555215,51.685607 52.034718,51.8875533 C51.4754005,52.0865299 50.7911291,51.730154 50.306189,52.1251373 C50.0711567,54.6078893 50.4043671,57.1470675 49.9670284,59.6268497 C49.7825727,62.3679743 49.8748006,65.1269176 49.8539749,67.8799214 C49.8063734,68.4501228 49.5564656,68.9757772 49.4285366,69.5281599 C48.8093056,69.3994191 48.1855534,69.7269289 47.9409902,70.309217 C47.9915668,72.3613482 47.7714099,74.4372377 48.125446,76.4685803 C48.4229552,76.8457448 48.9644221,76.6259797 49.3720099,76.6556776 C48.5062578,78.5593189 49.9134768,80.4243527 50.1336336,82.2982959 C50.5322961,83.1120208 50.2942886,84.1841183 51.0023607,84.8493533 C51.7223332,85.5710145 52.5226332,86.360981 53.5639157,86.5124408 C58.5650467,88.3923236 64.0451677,88.0359477 69.212904,87.3142865 C69.6532177,86.8242697 70.4029411,86.6312327 70.6201229,85.9511488 C71.1913407,84.5078264 71.1437392,82.9249235 71.423398,81.4162656 C72.1433704,76.8784126 74.6245979,72.0851569 78.6855996,69.7419854 C82.9429574,67.5146361 88.1553201,67.0483776 92.6685359,68.7411631 C96.8574666,70.2527908 100.124119,74.2442008 101.522412,78.4256779 C102.304862,81.217289 102.867154,84.1455109 102.712449,87.0380952 C102.691624,87.7270886 102.57857,88.5734813 102.768976,89.1733808 C128.780213,89.2179277 154.7974,89.1733808 180.811611,89.1941693 C182.001649,89.3753271 181.362004,87.7419376 181.466132,87.041065 C181.293576,83.3525746 181.433406,79.518564 182.831699,76.0528084 C183.748028,73.8907947 185.074919,71.8356937 186.967078,70.4101902 C192.447199,66.4752064 200.414498,66.4247198 205.888669,70.383462 C209.45878,73.0562812 211.541345,77.3506106 212.041161,81.7280945 C212.239121,83.4878645 212.321608,85.2586717 212.288094,87.0291858 C212.368421,87.6736322 212.18694,88.3151088 212.243467,88.9565854 C215.676724,88.9090686 219.124857,89.0902264 222.552164,88.9150082 C224.158714,89.0248908 225.735513,88.5764511 227.24686,88.0953437 C229.031916,87.721149 230.864573,87.9349745 232.658554,87.7597564 C232.840726,87.4342853 232.922493,87.0623374 232.893587,86.6906287 C232.66748,86.2303099 232.090312,85.9214508 232.203365,85.3304607 C232.804334,79.8600908 233.684961,74.4016001 233.95867,68.9104416 L233.95867,68.9104416 Z M89.6666673,53.4259093 C88.4379539,52.0805903 88.6164595,49.9245161 89.8957494,48.6445327 C95.2152154,43.1593138 102.72435,40.1301188 110.269185,39.5450684 C114.166557,39.1827529 118.084754,39.2480885 121.997001,39.2807562 C122.788376,39.476763 123.014483,40.3083067 123.08886,41.0180887 C123.793957,45.5381229 124.534755,50.0611269 125.147624,54.5900705 C113.318655,54.2247852 101.504562,53.6694328 89.6755925,53.4140301 L89.6666673,53.4259093 Z M165.724916,56.5501379 C154.773599,56.0690304 143.822282,55.4721008 132.870965,54.9909934 C131.637294,50.2828719 130.438331,45.5618813 129.274078,40.8280216 C129.039046,40.2340618 129.318705,39.5688268 130.014876,39.6074341 C136.387525,39.9459912 142.807776,40.5755886 148.963243,42.3901359 C155.050283,44.3175355 160.688083,47.4001869 166.254482,50.4679894 C165.522609,51.2549861 165.620787,52.425087 165.495833,53.4199697 C165.54046,54.4653389 165.335178,55.5463458 165.724916,56.5501379 L165.724916,56.5501379 Z M180.038087,67.5948207 C179.061685,67.7586424 178.066774,67.7816457 177.08382,67.663126 C176.869613,67.3869347 176.804161,66.6741829 177.271251,66.6266662 C178.211884,66.5551776 179.157898,66.6131365 180.082714,66.7989145 C180.496252,66.8315823 180.457575,67.5859113 180.032137,67.5977905 L180.038087,67.5948207 Z M228.127488,84.1069035 C228.020385,84.4810982 227.960883,85.1077258 227.452142,85.104756 L222.885374,85.104756 C222.204665,85.0939477 221.641527,84.5727875 221.579309,83.8960478 C221.623935,83.1476584 221.579309,82.3903597 221.79649,81.6657287 C221.897643,80.774789 222.352833,79.6165673 223.38519,79.4977754 C225.170246,79.4472888 226.937451,79.4561982 228.710606,79.4977754 C228.601941,81.0450399 228.405268,82.584889 228.121538,84.1098733 L228.127488,84.1069035 Z M228.99324,71.7852072 C225.167271,71.669385 221.362127,71.0546366 217.554008,70.6745023 C216.390183,69.1512134 215.311556,67.5649033 214.323057,65.9228238 C214.061249,65.5070519 214.049349,64.7853907 214.653292,64.6873874 C216.756683,64.5626558 218.860074,64.8744847 220.957514,65.0289143 C224.150711,65.4654699 227.235322,66.4884875 230.055348,68.0462301 C230.498637,69.2252403 230.739619,71.5624722 228.98729,71.788177 L228.99324,71.7852072 Z M87.4293974,68.7025557 C84.2879799,68.5536133 81.1860459,69.4509885 78.6112223,71.2536131 C73.9433016,74.4253585 71.6405798,80.581752 73.0120975,86.0402427 C74.7601586,93.2267861 81.7704067,97.8466131 89.0775989,96.6275764 C94.2007087,95.8168213 98.630622,91.9204449 100.15982,86.9846388 C101.474128,82.8305058 100.785437,78.3028781 98.2950862,74.7254086 C95.8047351,71.147939 91.7939732,68.9246519 87.4353476,68.7055255 L87.4293974,68.7025557 Z M93.1326504,79.7680271 C92.3234252,80.5282956 90.5978713,81.6063327 89.8987245,80.1808291 C88.7086874,79.1889163 90.1962338,77.8822047 91.0114092,77.2110301 C91.4933743,76.8101072 91.9812895,76.3200903 92.6001088,76.162691 C93.38517,76.8196323 94.0296884,77.6276344 94.4952429,78.5385303 C94.1279927,79.0352068 93.6646528,79.4532884 93.1326504,79.7680271 L93.1326504,79.7680271 Z M94.7808518,79.2394028 C95.3512538,80.2290376 95.6074856,81.3681204 95.5156998,82.5061818 C94.6231719,82.2092019 93.5937898,82.0280442 92.894643,81.4192354 C93.1594262,80.492658 94.1084809,79.8779096 94.7838269,79.2394028 L94.7808518,79.2394028 Z M84.6357853,82.6398228 C83.8027593,83.1149906 83.2464169,81.6330609 84.1210942,81.3628092 C84.8886682,81.0866179 85.4212098,82.3072053 84.6357853,82.6398228 L84.6357853,82.6398228 Z M84.0407667,77.0773891 C83.2910433,77.1278757 82.6424731,76.4477917 81.9939028,76.1003252 C81.8005218,75.9755937 81.2917809,75.7083117 81.6517671,75.482607 C82.4815594,74.9045677 83.4086523,74.4800709 84.3888526,74.2293518 C84.5524827,75.0608955 84.3472013,76.2161474 84.0318414,77.0773891 L84.0407667,77.0773891 Z M84.1062187,86.1055783 C84.6861614,86.2888069 85.2356113,86.5570379 85.7365696,86.9014845 C86.1263068,87.7924242 85.6324414,88.8823404 85.2665049,89.6188506 C84.9868462,90.1801426 84.7607392,90.8067702 84.2936496,91.2522401 C83.3135165,91.0068232 82.391495,90.5708533 81.5803649,89.9692869 C81.6487921,89.3040519 82.0117534,88.7041525 82.3092627,88.1161323 C82.6751991,87.3053771 83.2047656,86.4114676 84.0943184,86.1055783 L84.1062187,86.1055783 Z M85.5312882,85.4700413 C84.7190879,85.8056286 84.2341477,84.4335814 85.0731239,84.1811485 C85.8942495,83.833682 86.3672893,85.208699 85.5193878,85.4700413 L85.5312882,85.4700413 Z M85.5045124,83.1654772 C85.2278287,82.458665 85.7782209,81.6568193 86.4833179,81.4964501 C87.5394759,81.2440172 88.5212565,82.6635812 87.7447573,83.5099739 C87.2032904,84.4068532 85.7782209,84.1158129 85.492612,83.1654772 L85.5045124,83.1654772 Z M86.5517451,79.6225069 C86.8605478,79.5428127 87.1835535,79.6866586 87.3304276,79.969282 C87.4773016,80.2519053 87.4090851,80.5983392 87.1659754,80.8044437 C86.9228657,81.0105482 86.5693484,81.0216532 86.3137376,80.8312151 C86.1048914,80.6741121 86.0034632,80.4123063 86.0520753,80.1558141 C86.1006874,79.8993218 86.2909147,79.6925959 86.5428198,79.6225069 L86.5517451,79.6225069 Z M88.0392915,84.1128431 C88.8217409,83.8158632 89.2828803,85.1403936 88.4885305,85.3957963 C87.6525294,85.7759306 87.1348632,84.3533969 88.0184658,84.1128431 L88.0392915,84.1128431 Z M89.4405602,82.5893362 C88.6700112,82.9991685 88.0273911,81.7162153 88.8455416,81.3835978 C89.6041903,80.9886145 90.202184,82.2418697 89.4167595,82.5893362 L89.4405602,82.5893362 Z M89.0210721,74.2174726 C90.0405369,74.4594019 91.0007486,74.903808 91.8444352,75.5241842 C92.1211188,75.7350399 91.67783,75.9637145 91.5141999,76.0825064 C90.8418289,76.4270031 90.2259847,77.0566005 89.4613858,77.1070871 C89.0061966,76.2547548 88.9675204,75.1470197 88.9972714,74.2174726 L89.0210721,74.2174726 Z M87.7269067,86.9044543 C88.2271858,86.5588493 88.776816,86.2905303 89.3572576,86.1085481 C90.2973869,86.4292864 90.7912523,87.4004107 91.2345412,88.2200753 C91.4606482,88.7932465 91.8295597,89.3456291 91.8652609,89.9722567 C91.05909,90.5762248 90.142438,91.0170894 89.1668517,91.2700589 C88.6997621,90.8334984 88.4796052,90.1920218 88.2029216,89.62776 C87.8042591,88.88828 87.3163439,87.7924242 87.703106,86.9044543 L87.7269067,86.9044543 Z M88.4022528,75.9458957 C88.4320037,76.8784126 88.3368008,78.009906 87.5781521,78.6573222 C87.0190829,78.7279818 86.4533187,78.7279818 85.8942495,78.6573222 C85.0820492,77.9772382 85.0552734,76.7804092 85.0612235,75.8033453 C85.0612235,75.2093855 84.9779209,74.5827579 85.2605548,74.0511639 C86.2235748,73.8575341 87.2142784,73.8444422 88.1820959,74.0125565 C88.5658829,74.5530599 88.3516762,75.3133285 88.3725019,75.9458957 L88.4022528,75.9458957 Z M80.8990687,76.1448722 C81.4729433,76.4245213 81.9966536,76.7967877 82.449092,77.2466677 C83.1036125,77.7663825 83.9663894,78.5207115 84.0556422,79.474017 C83.755977,80.0076498 83.3641796,80.4842089 82.898331,80.8817017 C81.7380448,80.9826749 80.6640363,80.1748895 79.8934873,79.3968022 C79.5049287,79.2072658 79.1908336,78.8937296 79.0009594,78.5058625 C79.4400949,77.5874595 80.0819121,76.7802697 80.878243,76.1448722 L80.8990687,76.1448722 Z M80.3397512,81.6122723 C79.564464,82.002792 78.7413052,82.290335 77.8912498,82.4675744 C77.8672992,81.3409918 78.1195688,80.2256399 78.6260977,79.2186142 C79.2211163,79.6165673 79.6792806,80.2164667 80.205872,80.7035138 C80.4141285,80.9262487 80.7651895,81.4311146 80.3189256,81.6122723 L80.3397512,81.6122723 Z M79.0039345,82.8447389 C79.9296513,82.5004549 80.9281947,82.3982224 81.90465,82.547759 C82.8537047,82.6873396 82.6930496,83.86338 82.9161816,84.558313 C82.1634831,85.6007125 80.7800649,85.8917528 79.5870527,86.1055783 C79.2418403,86.1974932 78.8794687,86.2046258 78.5308948,86.1263669 C78.1337305,85.2162417 77.9165323,84.2380678 77.8912498,83.2456618 C78.1322323,82.9635309 78.6052721,82.9219537 78.9831089,82.8417691 L79.0039345,82.8447389 Z M79.8964624,86.7054777 C80.4275734,86.5887701 80.9715351,86.5408589 81.5149129,86.5629274 C82.0593549,86.5421388 81.8124222,87.4538671 81.7291196,87.5637497 C81.4821869,88.1933471 81.3364073,88.8823404 80.9823713,89.4644211 C80.1193559,88.7757633 79.4202513,87.9044518 78.9355074,86.9133637 C79.2268314,86.7828097 79.5414954,86.7121111 79.8607613,86.7054777 L79.8964624,86.7054777 Z M85.0909745,91.4571562 C85.3770552,90.8539045 85.7134334,90.2757276 86.0965558,89.7287332 C86.2780365,89.4792701 86.453567,89.1525922 86.7510763,89.0397398 C87.0485856,89.1525922 87.2211409,89.4792701 87.4026216,89.7287332 C87.785248,90.2750027 88.1216057,90.8521508 88.408203,91.4541864 C87.3028563,91.6862644 86.1614382,91.6882864 85.0552734,91.460126 L85.0909745,91.4571562 Z M92.5287066,89.4703607 C92.2217108,88.8710584 91.9793682,88.2408943 91.805759,87.5904778 C91.1631389,86.6787495 92.2966493,86.2748569 93.0106716,86.6431119 C93.3496527,86.6466485 93.6874639,86.6834531 94.0192281,86.7529945 C94.2128777,86.7531716 94.4025732,86.8077149 94.5666452,86.9103939 C94.0657081,87.9037691 93.3552437,88.7770985 92.4840802,89.4703607 L92.5287066,89.4703607 Z M94.8939054,86.2035817 C94.2810362,86.2926756 93.6027151,86.0669709 92.9987712,85.8917528 C92.1062434,85.7284138 91.133388,85.3393701 90.5829958,84.5612828 C90.7912523,83.86338 90.6484479,82.6843698 91.5915523,82.5507288 C92.3485907,82.4313627 93.1220834,82.4677451 93.8645232,82.6576416 C94.4595418,82.8180107 95.1765392,82.8833463 95.6138778,83.3139672 C95.4948741,84.2910311 95.3461195,85.3453097 94.849279,86.2035817 L94.8939054,86.2035817 Z M194.285807,68.8807437 C188.106949,69.9149789 183.3572,74.9022268 182.634666,81.1144712 C181.912131,87.3267157 185.390848,93.2675987 191.167966,95.6874673 C196.945083,98.1073359 203.629052,96.4233106 207.563753,91.5565505 C211.498455,86.6897903 211.736127,79.8125632 208.146764,74.6867009 C205.035678,70.2438504 199.641343,67.9843184 194.285807,68.8807437 L194.285807,68.8807437 Z M188.844362,87.026216 C188.624205,86.8361489 189.141871,86.7054777 189.341203,86.7084475 C190.105801,86.7084475 190.920977,86.3669206 191.65285,86.6520213 C191.819455,87.1242194 191.486245,87.8933974 191.35534,88.1992867 C191.205921,88.6253364 191.035133,89.0436164 190.843624,89.4525419 C190.013117,88.7936899 189.331756,87.9667841 188.844362,87.026216 L188.844362,87.026216 Z M193.964497,86.1352763 C194.579024,86.297162 195.152017,86.5877043 195.645424,86.9876086 C195.925083,88.0478269 195.392541,89.2446559 194.913551,90.0969883 C194.70232,90.4979111 194.520839,90.987928 194.148953,91.2581797 C193.179554,91.0163673 192.268904,90.5820532 191.471369,89.9811661 C191.426743,89.5267868 191.724252,89.066468 191.902758,88.6447565 C192.331171,87.6587832 192.93214,86.5480784 193.964497,86.1352763 L193.964497,86.1352763 Z M189.799367,86.0461823 C189.349743,86.1886329 188.873183,86.2252261 188.407023,86.1530951 C187.975635,85.3750077 187.883407,84.469219 187.728702,83.6079773 C187.544247,82.9932289 188.433799,82.9457121 188.841387,82.8209805 C189.962997,82.5566684 191.292863,82.1884133 192.349021,82.8209805 C192.468025,83.5188833 193.11957,84.484068 192.378772,85.0275412 C191.6588,85.6125917 190.715695,85.8650246 189.823168,86.0343031 L189.799367,86.0461823 Z M194.434562,82.6814 C193.58666,83.0140175 193.143371,81.5885139 194.035899,81.3746884 C194.86,81.1103763 195.264612,82.4319368 194.452412,82.6695208 L194.434562,82.6814 Z M193.803842,77.1605435 C192.888875,76.8236951 192.044515,76.3201959 191.313689,75.6756439 C192.117148,75.0350505 193.042103,74.5632936 194.032924,74.2887478 C194.517864,74.1164994 194.330433,74.7401572 194.297707,75.0133788 C194.187629,75.7142513 194.267956,76.5636139 193.821692,77.1486643 L193.803842,77.1605435 Z M194.729096,85.3393701 C194.530617,85.1873957 194.437384,84.9350301 194.489493,84.6908087 C194.541602,84.4465872 194.729763,84.2540483 194.973053,84.1959975 C195.209279,84.1211777 195.467586,84.1840247 195.64283,84.3589565 C195.818073,84.5338883 195.881032,84.7917357 195.806079,85.0275412 C195.74265,85.241244 195.574012,85.4076404 195.359207,85.4684738 C195.144402,85.5293072 194.913351,85.476104 194.746946,85.3274909 L194.729096,85.3393701 Z M195.773353,83.759437 C194.904626,83.1357792 195.330064,81.6122723 196.386222,81.4994199 C196.777173,81.4488183 197.170104,81.5771964 197.455425,81.8487494 C197.740746,82.1203023 197.887927,82.5059724 197.855918,82.8981953 C197.841043,83.8752592 196.493326,84.4484304 195.773353,83.759437 L195.773353,83.759437 Z M196.389198,79.6254767 C197.248999,79.3284968 197.623861,80.789638 196.740258,80.9559467 C195.942934,81.1668024 195.603773,79.8660304 196.398123,79.6195371 L196.389198,79.6254767 Z M197.876744,84.1158129 C198.269456,83.9702928 198.674069,84.2999405 198.801998,84.6563164 C198.8734,85.179001 198.206979,85.6838668 197.75179,85.3542191 C197.240074,85.104756 197.350152,84.2732123 197.873769,84.1098733 L197.876744,84.1158129 Z M199.283963,82.6012154 C198.474738,83.0258967 197.852943,81.6568193 198.745471,81.3835978 C199.52197,81.0094031 200.084263,82.2745375 199.283963,82.5952758 L199.283963,82.6012154 Z M198.8853,74.285778 C199.980135,74.4520867 201.000591,75.0401069 201.890144,75.6875231 C201.183067,76.2750965 200.394401,76.7572572 199.548746,77.1189663 C199.251237,77.2644865 199.144133,76.8457448 199.099507,76.634889 C198.919876,75.8553965 198.847807,75.0550547 198.8853,74.25608 L198.8853,74.285778 Z M197.60006,86.8925751 C198.100772,86.5787221 198.634538,86.3207795 199.191735,86.1233971 C200.241943,86.509471 200.905388,87.7033302 201.244549,88.6477263 C201.507391,89.0427756 201.671635,89.494915 201.723539,89.9663171 C200.914503,90.572152 199.99338,91.0122125 199.013229,91.2611495 C198.721895,90.9267133 198.479496,90.5527626 198.293257,90.1504447 C197.879719,89.2802935 197.132971,87.9587329 197.60006,86.8717865 L197.60006,86.8925751 Z M200.491851,84.6949237 C200.491851,83.8990176 200.542427,82.5388496 201.634286,82.53291 C202.93061,82.4404133 204.229515,82.6731876 205.412654,83.2100242 C205.44768,84.2693444 205.217612,85.3206715 204.743258,86.2689173 C203.264637,86.0729105 201.527183,85.8531454 200.491851,84.6741352 L200.491851,84.6949237 Z M202.735071,81.3687488 C203.157534,80.5104768 203.925108,79.8541512 204.654005,79.2453424 C205.222248,80.0917352 205.472156,81.4043864 205.424554,82.4943026 C204.505251,82.2329603 203.431242,82.0221046 202.735071,81.35093 L202.735071,81.3687488 Z M203.684125,79.2394028 C202.791597,80.0471882 201.696763,81.0212823 200.411523,80.8995205 C199.94221,80.4800837 199.547834,79.9839733 199.245287,79.4324398 C199.513045,78.3573725 200.387722,77.567406 201.259424,76.9496878 C201.604199,76.6109325 202.015444,76.3470309 202.467312,76.1745702 C203.205135,76.7210132 203.722801,77.5287986 204.252368,78.2801577 C204.546902,78.6632618 203.999485,79.0404263 203.684125,79.221584 L203.684125,79.2394028 Z M198.120702,74.0660128 C198.343834,74.5174223 198.21888,75.0490163 198.233755,75.5330936 C198.320033,76.6081609 198.266481,77.8554765 197.487007,78.6840504 C196.77596,78.6424732 195.663275,79.0552753 195.327089,78.1851242 C194.895701,77.3624898 194.925452,76.4270031 194.979004,75.5301238 C195.02363,75.0579257 194.833224,74.4936639 195.100982,74.0808618 C196.094727,73.8639582 197.122481,73.8528398 198.120702,74.0481941 L198.120702,74.0660128 Z M190.733546,76.1448722 C191.185369,76.3297231 191.595934,76.602273 191.941434,76.946718 C192.753634,77.5881946 193.726489,78.3247047 193.904995,79.4175908 C193.640234,79.9991607 193.230508,80.5032497 192.714958,80.8817017 C191.587398,80.9945541 190.632393,80.1808291 189.802342,79.5066848 C189.424505,79.1859465 188.579579,78.7582954 188.996092,78.1702752 C189.458575,77.4026669 190.045738,76.7171897 190.733546,76.1419024 L190.733546,76.1448722 Z M188.484376,79.2423726 C189.299854,79.7911637 189.983605,80.5132501 190.486613,81.3568696 C189.846968,81.9508294 188.93659,82.09041 188.14819,82.3992691 C188.005386,82.4259972 187.707877,82.622004 187.707877,82.3636315 C187.838781,81.3004434 187.960759,80.1956781 188.487351,79.2394028 L188.484376,79.2423726 Z M195.645424,90.1920218 C195.862865,89.7456386 196.182968,89.3569077 196.579603,89.0575586 C197.034793,89.2773237 197.296601,89.77625 197.552459,90.1979614 C197.82996,90.59006 198.05967,91.0137682 198.23673,91.460126 C197.15712,91.6813656 196.043738,91.6813656 194.964128,91.460126 C195.065281,90.9849582 195.419317,90.6048239 195.648399,90.189052 L195.645424,90.1920218 Z M202.348308,89.4673909 C202.122406,89.036455 201.940984,88.583707 201.806842,88.1161323 C201.640236,87.6498738 201.071994,86.583716 201.937746,86.5569878 C202.714259,86.5672066 203.487749,86.6557609 204.246418,86.8212999 C204.433849,86.8212999 204.484425,87.055914 204.314845,87.0826422 C203.833329,88.0042057 203.164572,88.8154008 202.351284,89.4644211 L202.348308,89.4673909 Z" id="Shape-Copy-11" fill="#9B9B9B"></path>
                        <path d="M67.4649626,11.8839988 L67.4649626,27.2179988 C59.2419626,21.0839988 51.0209626,33.3519988 42.7979626,27.2179988 L42.7979626,11.8839988 C51.0209626,18.0169988 59.2419626,5.74999877 67.4649626,11.8839988 Z" id="Shape" fill="url(#linearGradient-1)"></path>
                        <rect id="Rectangle-15" fill="#000000" x="41.5059626" y="11.2179988" width="2" height="40"></rect>
                        <path d="M186.95867,77.9104416 C186.830741,77.2897536 187.761945,76.707673 187.169901,76.1523206 C184.950482,74.1625552 182.284799,72.7667496 179.541763,71.638226 C171.59529,68.282353 162.991322,67.085524 154.479581,66.1678561 C151.248631,65.8708762 147.996854,65.3095842 144.745078,65.4135271 C144.388066,65.3957083 144.251212,64.3384599 143.632393,64.3562787 C143.254556,64.394886 142.335252,64.6295002 142.002042,64.5017988 C141.618255,64.3117317 141.4576,63.907839 140.812005,63.9464464 C140.282438,64.1335437 140.454994,64.7037451 139.854025,64.2731243 C139.40977,63.9769244 138.947766,63.7081499 138.470607,63.4683087 C131.517815,59.7501203 124.538247,56.1002372 117.41885,52.7206059 C114.04212,51.0872164 110.576136,49.658743 107.047676,48.357971 C97.9825684,45.3465948 88.2897159,44.7704537 78.8140452,44.4229872 C70.6325399,44.1943127 62.400458,44.2537087 54.3052304,45.6881217 C53.2996491,45.0139773 51.6930989,44.4615946 50.6845424,45.3020478 C48.5335503,43.998306 46.6681671,42.2936413 44.6302285,40.8473492 C44.5373641,40.7968744 44.4217601,40.8183941 44.3533625,40.8988878 C44.2849649,40.9793815 44.2825566,41.0967446 44.3475947,41.1799667 C46.3022307,42.7598998 48.3907459,44.1794637 50.220428,45.9078868 C50.3959584,46.0682559 50.220428,46.2969305 50.1966272,46.4869976 C48.8786611,46.8522829 47.3940898,47.0215614 46.2070277,47.6214609 C36.9842399,50.8050855 28.3802714,55.46767 19.809029,60.0560096 C14.8941756,60.3173519 9.95552151,60.685607 5.03471795,60.8875533 C4.4754005,61.0865299 3.79112915,60.730154 3.30618902,61.1251373 C3.07115668,63.6078893 3.40436708,66.1470675 2.96702843,68.6268497 C2.78257268,71.3679743 2.87480055,74.1269176 2.8539749,76.8799214 C2.80637342,77.4501228 2.55646562,77.9757772 2.42853663,78.5281599 C1.8093056,78.3994191 1.1855534,78.7269289 0.94099021,79.309217 C0.991566788,81.3613482 0.771409918,83.4372377 1.12544597,85.4685803 C1.42295525,85.8457448 1.96442215,85.6259797 2.37200986,85.6556776 C1.50625785,87.5593189 2.91347676,89.4243527 3.13363363,91.2982959 C3.53229607,92.1120208 3.29428864,93.1841183 4.00236074,93.8493533 C4.72233321,94.5710145 5.52263318,95.360981 6.56391567,95.5124408 C11.5650467,97.3923236 17.0451677,97.0359477 22.212904,96.3142865 C22.6532177,95.8242697 23.4029411,95.6312327 23.6201229,94.9511488 C24.1913407,93.5078264 24.1437392,91.9249235 24.423398,90.4162656 C25.1433704,85.8784126 27.6245979,81.0851569 31.6855996,78.7419854 C35.9429574,76.5146361 41.1553201,76.0483776 45.6685359,77.7411631 C49.8574666,79.2527908 53.1241186,83.2442008 54.5224122,87.4256779 C55.3048616,90.217289 55.8671542,93.1455109 55.7124493,96.0380952 C55.6916237,96.7270886 55.5785702,97.5734813 55.7689761,98.1733808 C81.7802128,98.2179277 107.7974,98.1733808 133.811611,98.1941693 C135.001649,98.3753271 134.362004,96.7419376 134.466132,96.041065 C134.293576,92.3525746 134.433406,88.518564 135.831699,85.0528084 C136.748028,82.8907947 138.074919,80.8356937 139.967078,79.4101902 C145.447199,75.4752064 153.414498,75.4247198 158.888669,79.383462 C162.45878,82.0562812 164.541345,86.3506106 165.041161,90.7280945 C165.239121,92.4878645 165.321608,94.2586717 165.288094,96.0291858 C165.368421,96.6736322 165.18694,97.3151088 165.243467,97.9565854 C168.676724,97.9090686 172.124857,98.0902264 175.552164,97.9150082 C177.158714,98.0248908 178.735513,97.5764511 180.24686,97.0953437 C182.031916,96.721149 183.864573,96.9349745 185.658554,96.7597564 C185.840726,96.4342853 185.922493,96.0623374 185.893587,95.6906287 C185.66748,95.2303099 185.090312,94.9214508 185.203365,94.3304607 C185.804334,88.8600908 186.684961,83.4016001 186.95867,77.9104416 L186.95867,77.9104416 Z M42.6666673,62.4259093 C41.4379539,61.0805903 41.6164595,58.9245161 42.8957494,57.6445327 C48.2152154,52.1593138 55.7243497,49.1301188 63.2691851,48.5450684 C67.1665568,48.1827529 71.084754,48.2480885 74.9970011,48.2807562 C75.7883758,48.476763 76.0144829,49.3083067 76.0888602,50.0180887 C76.7939572,54.5381229 77.5347553,59.0611269 78.1476244,63.5900705 C66.3186553,63.2247852 54.5045617,62.6694328 42.6755925,62.4140301 L42.6666673,62.4259093 Z M118.724916,65.5501379 C107.773599,65.0690304 96.8222822,64.4721008 85.8709654,63.9909934 C84.6372936,59.2828719 83.4383312,54.5618813 82.2740782,49.8280216 C82.0390459,49.2340618 82.3187046,48.5688268 83.0148763,48.6074341 C89.3875252,48.9459912 95.8077755,49.5755886 101.963243,51.3901359 C108.050283,53.3175355 113.688083,56.4001869 119.254482,59.4679894 C118.522609,60.2549861 118.620787,61.425087 118.495833,62.4199697 C118.54046,63.4653389 118.335178,64.5463458 118.724916,65.5501379 L118.724916,65.5501379 Z M133.038087,76.5948207 C132.061685,76.7586424 131.066774,76.7816457 130.08382,76.663126 C129.869613,76.3869347 129.804161,75.6741829 130.271251,75.6266662 C131.211884,75.5551776 132.157898,75.6131365 133.082714,75.7989145 C133.496252,75.8315823 133.457575,76.5859113 133.032137,76.5977905 L133.038087,76.5948207 Z M181.127488,93.1069035 C181.020385,93.4810982 180.960883,94.1077258 180.452142,94.104756 L175.885374,94.104756 C175.204665,94.0939477 174.641527,93.5727875 174.579309,92.8960478 C174.623935,92.1476584 174.579309,91.3903597 174.79649,90.6657287 C174.897643,89.774789 175.352833,88.6165673 176.38519,88.4977754 C178.170246,88.4472888 179.937451,88.4561982 181.710606,88.4977754 C181.601941,90.0450399 181.405268,91.584889 181.121538,93.1098733 L181.127488,93.1069035 Z M181.99324,80.7852072 C178.167271,80.669385 174.362127,80.0546366 170.554008,79.6745023 C169.390183,78.1512134 168.311556,76.5649033 167.323057,74.9228238 C167.061249,74.5070519 167.049349,73.7853907 167.653292,73.6873874 C169.756683,73.5626558 171.860074,73.8744847 173.957514,74.0289143 C177.150711,74.4654699 180.235322,75.4884875 183.055348,77.0462301 C183.498637,78.2252403 183.739619,80.5624722 181.98729,80.788177 L181.99324,80.7852072 Z M40.4293974,77.7025557 C37.2879799,77.5536133 34.1860459,78.4509885 31.6112223,80.2536131 C26.9433016,83.4253585 24.6405798,89.581752 26.0120975,95.0402427 C27.7601586,102.226786 34.7704067,106.846613 42.0775989,105.627576 C47.2007087,104.816821 51.630622,100.920445 53.1598197,95.9846388 C54.4741282,91.8305058 53.7854374,87.3028781 51.2950862,83.7254086 C48.8047351,80.147939 44.7939732,77.9246519 40.4353476,77.7055255 L40.4293974,77.7025557 Z M46.1326504,88.7680271 C45.3234252,89.5282956 43.5978713,90.6063327 42.8987245,89.1808291 C41.7086874,88.1889163 43.1962338,86.8822047 44.0114092,86.2110301 C44.4933743,85.8101072 44.9812895,85.3200903 45.6001088,85.162691 C46.38517,85.8196323 47.0296884,86.6276344 47.4952429,87.5385303 C47.1279927,88.0352068 46.6646528,88.4532884 46.1326504,88.7680271 L46.1326504,88.7680271 Z M47.7808518,88.2394028 C48.3512538,89.2290376 48.6074856,90.3681204 48.5156998,91.5061818 C47.6231719,91.2092019 46.5937898,91.0280442 45.894643,90.4192354 C46.1594262,89.492658 47.1084809,88.8779096 47.7838269,88.2394028 L47.7808518,88.2394028 Z M37.6357853,91.6398228 C36.8027593,92.1149906 36.2464169,90.6330609 37.1210942,90.3628092 C37.8886682,90.0866179 38.4212098,91.3072053 37.6357853,91.6398228 L37.6357853,91.6398228 Z M37.0407667,86.0773891 C36.2910433,86.1278757 35.6424731,85.4477917 34.9939028,85.1003252 C34.8005218,84.9755937 34.2917809,84.7083117 34.6517671,84.482607 C35.4815594,83.9045677 36.4086523,83.4800709 37.3888526,83.2293518 C37.5524827,84.0608955 37.3472013,85.2161474 37.0318414,86.0773891 L37.0407667,86.0773891 Z M37.1062187,95.1055783 C37.6861614,95.2888069 38.2356113,95.5570379 38.7365696,95.9014845 C39.1263068,96.7924242 38.6324414,97.8823404 38.2665049,98.6188506 C37.9868462,99.1801426 37.7607392,99.8067702 37.2936496,100.25224 C36.3135165,100.006823 35.391495,99.5708533 34.5803649,98.9692869 C34.6487921,98.3040519 35.0117534,97.7041525 35.3092627,97.1161323 C35.6751991,96.3053771 36.2047656,95.4114676 37.0943184,95.1055783 L37.1062187,95.1055783 Z M38.5312882,94.4700413 C37.7190879,94.8056286 37.2341477,93.4335814 38.0731239,93.1811485 C38.8942495,92.833682 39.3672893,94.208699 38.5193878,94.4700413 L38.5312882,94.4700413 Z M38.5045124,92.1654772 C38.2278287,91.458665 38.7782209,90.6568193 39.4833179,90.4964501 C40.5394759,90.2440172 41.5212565,91.6635812 40.7447573,92.5099739 C40.2032904,93.4068532 38.7782209,93.1158129 38.492612,92.1654772 L38.5045124,92.1654772 Z M39.5517451,88.6225069 C39.8605478,88.5428127 40.1835535,88.6866586 40.3304276,88.969282 C40.4773016,89.2519053 40.4090851,89.5983392 40.1659754,89.8044437 C39.9228657,90.0105482 39.5693484,90.0216532 39.3137376,89.8312151 C39.1048914,89.6741121 39.0034632,89.4123063 39.0520753,89.1558141 C39.1006874,88.8993218 39.2909147,88.6925959 39.5428198,88.6225069 L39.5517451,88.6225069 Z M41.0392915,93.1128431 C41.8217409,92.8158632 42.2828803,94.1403936 41.4885305,94.3957963 C40.6525294,94.7759306 40.1348632,93.3533969 41.0184658,93.1128431 L41.0392915,93.1128431 Z M42.4405602,91.5893362 C41.6700112,91.9991685 41.0273911,90.7162153 41.8455416,90.3835978 C42.6041903,89.9886145 43.202184,91.2418697 42.4167595,91.5893362 L42.4405602,91.5893362 Z M42.0210721,83.2174726 C43.0405369,83.4594019 44.0007486,83.903808 44.8444352,84.5241842 C45.1211188,84.7350399 44.67783,84.9637145 44.5141999,85.0825064 C43.8418289,85.4270031 43.2259847,86.0566005 42.4613858,86.1070871 C42.0061966,85.2547548 41.9675204,84.1470197 41.9972714,83.2174726 L42.0210721,83.2174726 Z M40.7269067,95.9044543 C41.2271858,95.5588493 41.776816,95.2905303 42.3572576,95.1085481 C43.2973869,95.4292864 43.7912523,96.4004107 44.2345412,97.2200753 C44.4606482,97.7932465 44.8295597,98.3456291 44.8652609,98.9722567 C44.05909,99.5762248 43.142438,100.017089 42.1668517,100.270059 C41.6997621,99.8334984 41.4796052,99.1920218 41.2029216,98.62776 C40.8042591,97.88828 40.3163439,96.7924242 40.703106,95.9044543 L40.7269067,95.9044543 Z M41.4022528,84.9458957 C41.4320037,85.8784126 41.3368008,87.009906 40.5781521,87.6573222 C40.0190829,87.7279818 39.4533187,87.7279818 38.8942495,87.6573222 C38.0820492,86.9772382 38.0552734,85.7804092 38.0612235,84.8033453 C38.0612235,84.2093855 37.9779209,83.5827579 38.2605548,83.0511639 C39.2235748,82.8575341 40.2142784,82.8444422 41.1820959,83.0125565 C41.5658829,83.5530599 41.3516762,84.3133285 41.3725019,84.9458957 L41.4022528,84.9458957 Z M33.8990687,85.1448722 C34.4729433,85.4245213 34.9966536,85.7967877 35.449092,86.2466677 C36.1036125,86.7663825 36.9663894,87.5207115 37.0556422,88.474017 C36.755977,89.0076498 36.3641796,89.4842089 35.898331,89.8817017 C34.7380448,89.9826749 33.6640363,89.1748895 32.8934873,88.3968022 C32.5049287,88.2072658 32.1908336,87.8937296 32.0009594,87.5058625 C32.4400949,86.5874595 33.0819121,85.7802697 33.878243,85.1448722 L33.8990687,85.1448722 Z M33.3397512,90.6122723 C32.564464,91.002792 31.7413052,91.290335 30.8912498,91.4675744 C30.8672992,90.3409918 31.1195688,89.2256399 31.6260977,88.2186142 C32.2211163,88.6165673 32.6792806,89.2164667 33.205872,89.7035138 C33.4141285,89.9262487 33.7651895,90.4311146 33.3189256,90.6122723 L33.3397512,90.6122723 Z M32.0039345,91.8447389 C32.9296513,91.5004549 33.9281947,91.3982224 34.90465,91.547759 C35.8537047,91.6873396 35.6930496,92.86338 35.9161816,93.558313 C35.1634831,94.6007125 33.7800649,94.8917528 32.5870527,95.1055783 C32.2418403,95.1974932 31.8794687,95.2046258 31.5308948,95.1263669 C31.1337305,94.2162417 30.9165323,93.2380678 30.8912498,92.2456618 C31.1322323,91.9635309 31.6052721,91.9219537 31.9831089,91.8417691 L32.0039345,91.8447389 Z M32.8964624,95.7054777 C33.4275734,95.5887701 33.9715351,95.5408589 34.5149129,95.5629274 C35.0593549,95.5421388 34.8124222,96.4538671 34.7291196,96.5637497 C34.4821869,97.1933471 34.3364073,97.8823404 33.9823713,98.4644211 C33.1193559,97.7757633 32.4202513,96.9044518 31.9355074,95.9133637 C32.2268314,95.7828097 32.5414954,95.7121111 32.8607613,95.7054777 L32.8964624,95.7054777 Z M38.0909745,100.457156 C38.3770552,99.8539045 38.7134334,99.2757276 39.0965558,98.7287332 C39.2780365,98.4792701 39.453567,98.1525922 39.7510763,98.0397398 C40.0485856,98.1525922 40.2211409,98.4792701 40.4026216,98.7287332 C40.785248,99.2750027 41.1216057,99.8521508 41.408203,100.454186 C40.3028563,100.686264 39.1614382,100.688286 38.0552734,100.460126 L38.0909745,100.457156 Z M45.5287066,98.4703607 C45.2217108,97.8710584 44.9793682,97.2408943 44.805759,96.5904778 C44.1631389,95.6787495 45.2966493,95.2748569 46.0106716,95.6431119 C46.3496527,95.6466485 46.6874639,95.6834531 47.0192281,95.7529945 C47.2128777,95.7531716 47.4025732,95.8077149 47.5666452,95.9103939 C47.0657081,96.9037691 46.3552437,97.7770985 45.4840802,98.4703607 L45.5287066,98.4703607 Z M47.8939054,95.2035817 C47.2810362,95.2926756 46.6027151,95.0669709 45.9987712,94.8917528 C45.1062434,94.7284138 44.133388,94.3393701 43.5829958,93.5612828 C43.7912523,92.86338 43.6484479,91.6843698 44.5915523,91.5507288 C45.3485907,91.4313627 46.1220834,91.4677451 46.8645232,91.6576416 C47.4595418,91.8180107 48.1765392,91.8833463 48.6138778,92.3139672 C48.4948741,93.2910311 48.3461195,94.3453097 47.849279,95.2035817 L47.8939054,95.2035817 Z M147.285807,77.8807437 C141.106949,78.9149789 136.3572,83.9022268 135.634666,90.1144712 C134.912131,96.3267157 138.390848,102.267599 144.167966,104.687467 C149.945083,107.107336 156.629052,105.423311 160.563753,100.55655 C164.498455,95.6897903 164.736127,88.8125632 161.146764,83.6867009 C158.035678,79.2438504 152.641343,76.9843184 147.285807,77.8807437 L147.285807,77.8807437 Z M141.844362,96.026216 C141.624205,95.8361489 142.141871,95.7054777 142.341203,95.7084475 C143.105801,95.7084475 143.920977,95.3669206 144.65285,95.6520213 C144.819455,96.1242194 144.486245,96.8933974 144.35534,97.1992867 C144.205921,97.6253364 144.035133,98.0436164 143.843624,98.4525419 C143.013117,97.7936899 142.331756,96.9667841 141.844362,96.026216 L141.844362,96.026216 Z M146.964497,95.1352763 C147.579024,95.297162 148.152017,95.5877043 148.645424,95.9876086 C148.925083,97.0478269 148.392541,98.2446559 147.913551,99.0969883 C147.70232,99.4979111 147.520839,99.987928 147.148953,100.25818 C146.179554,100.016367 145.268904,99.5820532 144.471369,98.9811661 C144.426743,98.5267868 144.724252,98.066468 144.902758,97.6447565 C145.331171,96.6587832 145.93214,95.5480784 146.964497,95.1352763 L146.964497,95.1352763 Z M142.799367,95.0461823 C142.349743,95.1886329 141.873183,95.2252261 141.407023,95.1530951 C140.975635,94.3750077 140.883407,93.469219 140.728702,92.6079773 C140.544247,91.9932289 141.433799,91.9457121 141.841387,91.8209805 C142.962997,91.5566684 144.292863,91.1884133 145.349021,91.8209805 C145.468025,92.5188833 146.11957,93.484068 145.378772,94.0275412 C144.6588,94.6125917 143.715695,94.8650246 142.823168,95.0343031 L142.799367,95.0461823 Z M147.434562,91.6814 C146.58666,92.0140175 146.143371,90.5885139 147.035899,90.3746884 C147.86,90.1103763 148.264612,91.4319368 147.452412,91.6695208 L147.434562,91.6814 Z M146.803842,86.1605435 C145.888875,85.8236951 145.044515,85.3201959 144.313689,84.6756439 C145.117148,84.0350505 146.042103,83.5632936 147.032924,83.2887478 C147.517864,83.1164994 147.330433,83.7401572 147.297707,84.0133788 C147.187629,84.7142513 147.267956,85.5636139 146.821692,86.1486643 L146.803842,86.1605435 Z M147.729096,94.3393701 C147.530617,94.1873957 147.437384,93.9350301 147.489493,93.6908087 C147.541602,93.4465872 147.729763,93.2540483 147.973053,93.1959975 C148.209279,93.1211777 148.467586,93.1840247 148.64283,93.3589565 C148.818073,93.5338883 148.881032,93.7917357 148.806079,94.0275412 C148.74265,94.241244 148.574012,94.4076404 148.359207,94.4684738 C148.144402,94.5293072 147.913351,94.476104 147.746946,94.3274909 L147.729096,94.3393701 Z M148.773353,92.759437 C147.904626,92.1357792 148.330064,90.6122723 149.386222,90.4994199 C149.777173,90.4488183 150.170104,90.5771964 150.455425,90.8487494 C150.740746,91.1203023 150.887927,91.5059724 150.855918,91.8981953 C150.841043,92.8752592 149.493326,93.4484304 148.773353,92.759437 L148.773353,92.759437 Z M149.389198,88.6254767 C150.248999,88.3284968 150.623861,89.789638 149.740258,89.9559467 C148.942934,90.1668024 148.603773,88.8660304 149.398123,88.6195371 L149.389198,88.6254767 Z M150.876744,93.1158129 C151.269456,92.9702928 151.674069,93.2999405 151.801998,93.6563164 C151.8734,94.179001 151.206979,94.6838668 150.75179,94.3542191 C150.240074,94.104756 150.350152,93.2732123 150.873769,93.1098733 L150.876744,93.1158129 Z M152.283963,91.6012154 C151.474738,92.0258967 150.852943,90.6568193 151.745471,90.3835978 C152.52197,90.0094031 153.084263,91.2745375 152.283963,91.5952758 L152.283963,91.6012154 Z M151.8853,83.285778 C152.980135,83.4520867 154.000591,84.0401069 154.890144,84.6875231 C154.183067,85.2750965 153.394401,85.7572572 152.548746,86.1189663 C152.251237,86.2644865 152.144133,85.8457448 152.099507,85.634889 C151.919876,84.8553965 151.847807,84.0550547 151.8853,83.25608 L151.8853,83.285778 Z M150.60006,95.8925751 C151.100772,95.5787221 151.634538,95.3207795 152.191735,95.1233971 C153.241943,95.509471 153.905388,96.7033302 154.244549,97.6477263 C154.507391,98.0427756 154.671635,98.494915 154.723539,98.9663171 C153.914503,99.572152 152.99338,100.012212 152.013229,100.26115 C151.721895,99.9267133 151.479496,99.5527626 151.293257,99.1504447 C150.879719,98.2802935 150.132971,96.9587329 150.60006,95.8717865 L150.60006,95.8925751 Z M153.491851,93.6949237 C153.491851,92.8990176 153.542427,91.5388496 154.634286,91.53291 C155.93061,91.4404133 157.229515,91.6731876 158.412654,92.2100242 C158.44768,93.2693444 158.217612,94.3206715 157.743258,95.2689173 C156.264637,95.0729105 154.527183,94.8531454 153.491851,93.6741352 L153.491851,93.6949237 Z M155.735071,90.3687488 C156.157534,89.5104768 156.925108,88.8541512 157.654005,88.2453424 C158.222248,89.0917352 158.472156,90.4043864 158.424554,91.4943026 C157.505251,91.2329603 156.431242,91.0221046 155.735071,90.35093 L155.735071,90.3687488 Z M156.684125,88.2394028 C155.791597,89.0471882 154.696763,90.0212823 153.411523,89.8995205 C152.94221,89.4800837 152.547834,88.9839733 152.245287,88.4324398 C152.513045,87.3573725 153.387722,86.567406 154.259424,85.9496878 C154.604199,85.6109325 155.015444,85.3470309 155.467312,85.1745702 C156.205135,85.7210132 156.722801,86.5287986 157.252368,87.2801577 C157.546902,87.6632618 156.999485,88.0404263 156.684125,88.221584 L156.684125,88.2394028 Z M151.120702,83.0660128 C151.343834,83.5174223 151.21888,84.0490163 151.233755,84.5330936 C151.320033,85.6081609 151.266481,86.8554765 150.487007,87.6840504 C149.77596,87.6424732 148.663275,88.0552753 148.327089,87.1851242 C147.895701,86.3624898 147.925452,85.4270031 147.979004,84.5301238 C148.02363,84.0579257 147.833224,83.4936639 148.100982,83.0808618 C149.094727,82.8639582 150.122481,82.8528398 151.120702,83.0481941 L151.120702,83.0660128 Z M143.733546,85.1448722 C144.185369,85.3297231 144.595934,85.602273 144.941434,85.946718 C145.753634,86.5881946 146.726489,87.3247047 146.904995,88.4175908 C146.640234,88.9991607 146.230508,89.5032497 145.714958,89.8817017 C144.587398,89.9945541 143.632393,89.1808291 142.802342,88.5066848 C142.424505,88.1859465 141.579579,87.7582954 141.996092,87.1702752 C142.458575,86.4026669 143.045738,85.7171897 143.733546,85.1419024 L143.733546,85.1448722 Z M141.484376,88.2423726 C142.299854,88.7911637 142.983605,89.5132501 143.486613,90.3568696 C142.846968,90.9508294 141.93659,91.09041 141.14819,91.3992691 C141.005386,91.4259972 140.707877,91.622004 140.707877,91.3636315 C140.838781,90.3004434 140.960759,89.1956781 141.487351,88.2394028 L141.484376,88.2423726 Z M148.645424,99.1920218 C148.862865,98.7456386 149.182968,98.3569077 149.579603,98.0575586 C150.034793,98.2773237 150.296601,98.77625 150.552459,99.1979614 C150.82996,99.59006 151.05967,100.013768 151.23673,100.460126 C150.15712,100.681366 149.043738,100.681366 147.964128,100.460126 C148.065281,99.9849582 148.419317,99.6048239 148.648399,99.189052 L148.645424,99.1920218 Z M155.348308,98.4673909 C155.122406,98.036455 154.940984,97.583707 154.806842,97.1161323 C154.640236,96.6498738 154.071994,95.583716 154.937746,95.5569878 C155.714259,95.5672066 156.487749,95.6557609 157.246418,95.8212999 C157.433849,95.8212999 157.484425,96.055914 157.314845,96.0826422 C156.833329,97.0042057 156.164572,97.8154008 155.351284,98.4644211 L155.348308,98.4673909 Z" id="Shape-Copy-10" fill="#4A4A4A"></path>
                    </g>
                </g>
            </g>
        </g>
    </g>
</svg>